<?xml version="1.0" encoding="utf-8"?>
<!-- Generator: Adobe Illustrator 18.1.1, SVG Export Plug-In . SVG Version: 6.00 Build 0)  -->
<svg version="1.1" id="Layer_1" xmlns="http://www.w3.org/2000/svg" xmlns:xlink="http://www.w3.org/1999/xlink" x="0px" y="0px"
	 viewBox="0 0 1585.2 2385.7" enable-background="new 0 0 1585.2 2385.7" xml:space="preserve">
<g>
	<path fill="#FFFFFF" d="M1329.3,564l-2.4-1.5l-44.6-29.8l-9.3-6l-13.6-9.6l-64.9-44.3c-0.2,1.4-0.3,2.9-2.2,3.2c-0.4,0.1-1.3-0.8-1.3-1.3
		c-0.1-1.9,1.1-2.3,2.5-2.6l-7.1-4.8l-33.8-21.5l-7.1-4.4l-4.8-3.2l-22.3-14.7c0.4,0.4,0.7,0.9,0.7,1.2c-0.1,0.7-1,1.7-1.7,1.8
		c-0.6,0.1-1.3-0.9-2.5-1.8c1.2-0.9,1.9-1.8,2.6-1.8c0,0,0.1,0,0.1,0l-24.5-16.1l-4.5-2.8l-4.8-3.6l-18.7-14.4l-8.7-6.7l-15.1-11.6
		l-71-51.2l-38.6-27.2l-24.8-17.9l-25.9-18.9l-3.9,1.8l-2,0.9l-0.6,0.2l-3.1,0.8l-2.9,1.1l-3,1.1l-2.2,0.8l-1.9,0.3l-2.6-0.3
		l-2.4-0.7l-1.9,0.1l-1.3,0l-2.6,0.5l-2.6,0.4l-1.9,0.9l-2.1,1.5l-0.6,0.8l-1.3,1.5l-1.1,2.2l-1,2.3l-1.2,2.3l-1.2,1.3l-1.7,0.9
		l-2,0.7l-1.4,0.3l-0.6,0.2l-2.3,0.4l-2.6-0.3l-1.4,0.2l-1.8,0.2l-1.5,0.6l-0.8,0.7l-0.8,0.9l-0.2,1.7l0.3,1.1l0.7,1.1l0.3,1.1
		l-0.1,1.4l-0.5,0.7l-0.3,0.6l-0.5,0.5l-1,1.1l-3.4,1.7l-3.8,2.6l-3,2l-2.3,1.6l-1.9,1.3l-1.5,0.9l-0.3,0.2l-1.9,1.5l-1.7,1.6
		l-1.2,1.7l-1.3,1.9l-1.2,2l-1.3,1.9l-1.2,1.5l-0.9,2l-0.3,1.7l-0.7,1.5l-1,1.5l-0.9,2.4l-1,4.2l-0.1,0.8l-1.3,2.7l-2.3,2l-1.4,0.5
		l-1.9,1.2l-1.3,1.7l-1.5,1.7l-0.5,1.5l-0.8,1.7l-0.5,2.1l-0.7,1.6l-2.1,2.5l-0.1,1l0.1,2.1l1.1,1.8l1.3,1.9l0.4,0.7l0.3,0.5
		l0.3,1.4l-0.5,1.7l-1,2.4l-0.6,0.9l-0.5,0.7l-2.8,4l-1.1,1.8l-1.7,3.1l-2.1,3.4l-2,3.4l-0.9,2l-0.8,1.8l-0.5,1.5l-0.7,1.3l-1,1.8
		l-0.2,0.5l-1.3,1.7l-1.9,2.3l-2,1.2l-1.3,0.9l-1.4,1.2l-1,1.1l-0.9,1.7l-0.9,1.2l-1.2,2.4l-2.2,4.4l-2.3,3.2l-1.5,1.9l-2.8,3.1
		l-3,3.1l-2.8,1.8l-3.8,2.5l-2.7,1.4l-2.2,1l-1.4,0.3l-1.5,0.7l-0.8,0.7l-1.4,1.2l-0.5,1.4l-0.9,1.1l-0.7,0.9l-1.6,1l-2.1,1.3
		l-0.5,0.5l-1.8,0.8l-1.9,1.6l-1.7,0.9l-0.9,0.3l-1.8-0.1l-1.1,0.1l-0.6,0l-1.9,1.1l-0.7,0.4l-0.3,0.3l-2,1.9l-2,2l-2,4.1l-1.3,2.4
		l-0.2,0.5l-1.3,2l-0.4,0.7l-0.1,0.8l0.2,1.1l0.6,1.1l1,0.3l1.6-0.2l1.5-0.2l1.8-1.2l2-1.1l1.1-1.1l1.5-1.1l1.5-0.6l1.6-0.3l0.7,0.4
		l0.3,1.1l-0.1,1.1l-1,2l-1.2,1.7l-2.4,2.6l-3.1,2.2l-1.6,1.2l-0.4,0.3l-2.3,0.5l-2.5,0.5l-1.8,0.9l-2.3,0.8l-2.2,0.9l-1.9,1.3
		l-1.4,1.2l-1,1.1l-1.4,0.5l-1.1,0.3l-1.2,1.3l-0.8,1.1l-0.9,1.7l-0.7,1.2l-1.6,3.8l-0.9,1.8l-1.2,1.3l-1.2,1.3l-1.1,1l-0.5,1.7
		l-0.5,1.4l-0.1,1.1l-0.3,1.7l-1,0.6l-1.2,0.9l-1.5,0.9l-1.6,1.6l-1.9,1.2l-2.2,1.6l-1.5,0.9l-2.4,1.2l-1.2,0.6l-1,0.6l-3.8,2.5
		l-0.9,0.6l-4.9,2.1l-4.5,1.6l-3.7,0.7l-0.9,0.4l-1.6,0.8l-2.5,1.1l-3.1,1.5l-3.7,1.1l-4.5,1.4l-3.1,2.2l-2.7,2.1l-1.1,0.9l-3.3,2.3
		l-2.7,1.6l-1.9,1.1l-1.1,1.1l-0.3,2l-0.1,0.8l-0.1,0.9l-0.1,1.2l-0.2,0.8l-1.1,1.5l-1.3,1.6l-0.8,2l0.9,2.5l0.3,0.3l1.2,1.4
		l1.2,0.6l1.1,0.8l2.5,1.2l1.4,0.4l1,1.2l0.6,1.4l0.2,2.1l-0.1,1.4l0.2,1.8l0.6,1.8l1.9,4.4l0.6,1.5l1.6,2.7l2.2,5.7l2.9,6.4
		l1.8,3.7l1.1,1.7l1.3,1.6l1.5,1.1l1.3,0.7l1.3,1.6l1.3,2.1l0.8,1.8l0.5,2.2l0.4,2.6l0.5,2.6l0,2.3l0.6,2.2l0.5,2.1l1.3,2.6l1.1,1.9
		l0.2,0.3l1.6,2.6l1.5,3.1l2.5,3.7l1.3,3.5l0.7,3.4l-0.1,2.7l-0.9,2l-0.8,1.4l-1.7,1.6l-1.1,1.2l-1.2,2.1l-0.8,1.7l-0.7,1.2
		l-1.3,1.1l-1.5,0.2l-1.4,0l-1.8-0.6l-0.5-0.4l-0.8-0.3l-1.8-0.8l-2.2-0.2l-2.1,0.2l-2.2,0.5l-1.2,0.3l-1.2,1.4l-0.9,2l-0.1,1.8
		l0.6,1.8l1,1.8l1.3,1.6l1.3,1.8l1.3,1.9l0.4,3.2l-0.1,1l-0.1,1.6l-0.1,0.5l-0.9,2.4l-0.7,1.5l-1.7,1.6l-1.3,0.8l-0.9,0.8l-1,0.8
		l-1.3,1l-0.3,0.3l-0.9,1.6l-1,2l-0.4,1.4l-1.2,2.4l-2,2.7l-2.7,2.6l-1.1,0.9l-2.3,1l-2.3,0.3l-1.8,1.2l-1.2,1.3l-1.5,1.4l-1.1,1.9
		l-1.3,1.9l-1.3,1.5l-0.8,0.9l-0.3,0.3l-0.8,0.4l-0.3,0l-1.6,0.1l-1.7-0.5l-2.4-0.9l-0.3-0.2l-2.1-0.9l-2.5-0.9l-2.5-0.7l-2.5-0.5
		l-1.7-0.2l-0.4,0l-1.8,0.1l-1.5,0.9l-1.1,1.3l-0.8,1.2l-0.5,1.4l-0.5,2.1l-0.8,1.8l-1.2,2l-1.6,2l-2.1,1.1l-2.2,0.6l-3.4,1.9
		l-2.4,1.8l-0.9,1.3l-0.4,1.2l0.5,2.4l0.9,1.6l2.6,3l0.6,0.8l1.2,1.4l0.8,1.3l0.9,1.9l0.5,2.1l-0.5,1.7l-1.2,1.6l-0.7,1.4l-0.4,1.1
		l-0.4,1.3l-0.7,1.4l-0.2,0.4l-1.2,1l-1.6,1.6l-1.6,2.3l-2.4,4.2l-1.7,4.1l-1.4,4.6l-0.8,3l-0.1,0.8l0.5,3.2l0.6,1.8l1.5,1.4
		l2.4,1.4l2.7,0.7l2.9,0.6l2.1,0.5l1.2,1.1l0.6,2.6l-0.5,2.1l-0.9,2.1l-1.8,1.5l-1.6,1.4l-1.9,1.6l-2,1.5l-2,2l-1.4,1.3l-1.2,2.3
		l-0.6,1.3l-0.4,1.8l-0.2,1.7l0.3,1.4l1,0.8l0.9,1.5l0.6,0.8l1.1,2l0.5,2.5l0.2,1.8l0.2,2.8l-0.1,3.8l-0.2,1.4l-0.9,2l-0.8,0.8
		l-0.5,0.5l-1.1,0.1l-1.8,0.6l-1.2,0.6l-0.4,1.4l-0.1,1.8l0.4,1.4l0.2,1.6l0.2,1l1.3,2.2l0.8,3.6l0.5,3.6l0.5,3.4l-0.2,1.5l-0.1,1.3
		l-1,3.2l-0.7,2.3l-0.2,1.7l-0.1,1.1l1.3,3.9l2.8,3.5l2.7,2.2l2.3,0.8l2.5,1.1l3.2,0.7l3-0.2l2.9-1.1l1.9-1.3l2.1-1.4l1.9-1.2
		l1.6-0.9l2.2-0.9l1.1-0.2l2.9,0l4.9,0.8l4.6,1.1l0.3,0.2l4.6,1.9l3.3,1.7l2.3,2l1.6,1.7l1,1.3l2,2.5l3.1,4l3.2,4l2.3,2.6l1.7,2.2
		l2.3,2.6l1,2.5l0.4,3l0.2,2.5l-0.6,3.5l-0.2,3.2l-0.6,2.8l-0.3,4.8l0.2,2.5l0.2,1.5l0,1.8l-0.2,6.4l-0.5,6.4l0,4.2l-0.3,2.4l-1,3.2
		l-0.5,1.7l-1.6,5.4l-0.7,2.5l-0.9,2.1l-0.9,2.4l-0.2,2.1l-0.6,2.1l-0.2,1.1l0.1,1.4l0.2,2.5l0.5,2.8l0.8,2.2l0.7,2.4l0.5,2.1
		l0.1,0.4l-0.1,1l0.5,3.6l0.3,3.3l0.5,2.2l0.5,1.5l1.5,1.2l1.6,1.6l1.4,0.5l2,1.3l1.8,1.5l1.5,1.7l1.3,1.1l2,1.9l2.4,1.4l2,0.9
		l1.8,0.2l2.9-0.4l1.9-0.5l3.2-0.8l4-1.5l1.7-0.4l0.2,0c0.4-0.5,0.9-1,1.7-1.9c0.3,0.6,0.7,1.2,0.9,1.6l0.7,0l0.5,0l1.5,0.4l2.3,0.9
		l2.2,1.6l1.4,0.8l1.4,0.8l2.5,1.6l1.1,0.7l1.9,1.3l1.7,1.4l0.3,0.3l1.4,1.7l0.8,2l1.1,2l1,2.5l1.1,2.8l1.3,3.5l1.3,3.7l1.6,6.8
		l0.9,6.6l0.2,5.5l0.6,5l0.5,2.5l1.3,2.6l2.2,2.7l1.8,2.5l1.3,1.9l1.3,1.9l4,5.2l2.2,2.2l1.5,1.7l0.3,0.2l2.1,1.5l2.4,0.9l2.1,0.6
		l1.7,0.5l1.4,0.5l2.1,1.2l1.3,0.6l1.6,1.6l1.4,1.2l1.5,1.2l2.6,3.9l2.8,3.9l2,3.1l1.4,2.1l0.9,1.3l2.5,5.2l1.2,3.3l1.2,4.2l0.8,3.8
		l0.9,3.1l1.1,2.7l0.6,2.8l1.3,2.5l1.5,3l1,2.2l0.8,1.2l0.2,0.3l1.1,1.3l1.3,0.7l4.1,2.8l4.1,3.2l2.4,1.4l2.9,1.5l3.1,1.8l2.4,1.6
		l2.7,2.1l0.3,0.2l3.1,2.3l3.3,3.2l1.8,1.1l2.2,2.5l1.2,1.3l0.6,0.8l1.3,2.1l1.2,2.6l0.8,2.2l0.6,1.7c1.2,0.8,1.6,1.9,1.3,3.3
		l0.1,0.1l1.3,2.2l0.6,1.8l0.1,1.8l0.4,1.6c1.8-2,3.3-3.7,5.7-6.4c0.8,2.3,1.7,3.7,1.4,4.3c-1.4,2.3-3.4,3.7-6.9,2.7l0.4,1.3
		l0.9,1.9l1.4,1.4l1.6,1.6l1.4,1.2l1.4,0.8l2.4,1.2l0.6,0.4l1.1,1.6l1.4,1.6l0.4,0.5l2,1.9l2.2,3.3l1.6,3.2l1,3.4l-0.2,4.4l-1.2,2.6
		l-0.3,0.5l-1.7,3.1l-3,2.7l-3.1,2.2l-2.7,1.9l-2.7,1.5l-1.9,0.4l-2-0.1l-2.7-0.1l-2.9,0.1l-1.8,0.5l-0.4,0.1l-2.4,0.8l-2.3,1.3
		l-1.9,1.5l-1.9,1.2l-1.6,1.3l-0.4,0.2l-1.6,1l-1.5,0.6l-1.7,0.2l-1.8-0.1l-0.4-0.2l-1.8-0.5l-2-0.7l-3.2-1.9l-0.3-0.2l-3.2-1.6
		l-2.5-0.9l-2.5-0.2l-2.2,0.5l-1.9,0.6l-1.6,1.3l-1.5,1.7l-1.6,2.2l-0.9,2.6l-1.4,2.7l-0.6,3.1l-0.9,2.4l-1.5,1.7l-1.9,1.3l-2.3,1.2
		l-2.6,1.1l-1.8,1.1l-1.6,1.2l-1.4,1.5l-1.1,1.5l-1.1,1.4l-1.5,1.4l-1.2,1l-2.2,0.8l-2.1,0.8l-2.3,0.8l-2.2,1l-2.7,0.8l-3.3,0.8
		l-2.9,0.8l-2,0.7l-2.2,0.5l-2.6,0.5l-2.2,0.5l-2.2,0.5l-2.2,0.1l-4,0l-2-0.2l-0.8-0.1l-2.9,0.4l-2.9,1.4l-6,3.4l-7.7,4.3l-4.6,1.9
		l-3.8,1.9l-1,0.7l-1.7,1.2l-2.6,1.9l-2.3,1.5l-1.6,1.6l-3.3,3.2l-1.8,1.9l-0.7,0.7l-2.4,1.9l-2.7,1.8l-0.3,0.2l-2.7,1.7l-2.1,1.3
		l-1.5,0.7l-3.8,1.6l-3.9,1l-3,0.8l-2.9,0.8l-2.7,1.1l-2.3,1.2l-1.5,1.4l-2,1.8l-1,1.6l-1.7,2.3l-0.9,2.4l-1.2,2.1l-1.3,2l-0.3,0.6
		c0.2,1.2,0.4,2.6,0.8,4.7c-1.6-0.6-2.8-0.9-3.7-1.3l-0.2,0.2l-2.4,2.4l-2.8,2.1l-3,2l-1,0.4c0.3,0.2,0.7,0.4,1.1,0.5
		c-1.2,0.8-2,1.4-2.8,1.6c-0.4,0.1-1-0.5-1.5-0.9l0,0l-4.8,1.1l-4.7,1.1l-2.6,0.7l-4.5,1.3l-5.1,2.7l-3.5,2.1l-1.2,0.7l-0.7,0.7
		l-2.5,2.1l-1.9,2l-1,1.7l-1.1,2.3l-0.4,1.9l-0.7,2.8l0.1,3.1l0.1,2.8l0,3.2l0.4,3.3l0.4,3.2l0.5,2.2l0.8,2.9l0.5,2.2l0.2,2.1
		l-0.3,3.1l-0.5,2.4l-0.3,1.1l-0.9,3.1l-1.3,2.4l-2,2.7l-1.9,2.2l-0.5,0.5l-2.6,2.2l-2.4,1.5l-0.4,0.1l-1.9,0.4l-3.1,0.5l-4.1-0.2
		l-4.6-0.5l-4.2-0.8l-2.5,0l-1.3,0.1l-0.6,0l-2.1,0.6l-1.3,0.9l-0.7,0.3l-1.3,0.8l-0.5,0.3l-1.2,1.5l-4.7,3.8l-4.2,3.1l-0.8,0.4
		l-4.6,2.4l-6.8,2.4l-7.5,2.1l-4.3,0.7l-4.3,0.5l-4.4,1l-4,0.8l-3.6,0.5l-3.6,0.2l-4.1,0l-5.6-1.3l-5.7-1.5l-4.3-0.7l-3.6-0.3
		l-3.6,0l-2.9,0.6l-2.6,0.6l-1.1,0.3l-3,1.1l-3,1.5l-3.7,1.9l-4.9,3.2l-4.3,3.9l-10.9,7.7l-18.2,11.7l5.1,5.2l-3,1.2l-5.9,2
		l-3.3,1.6l-0.4,0.3l-3.3,1.5l-0.8,0.7l-1.9,1.6l-4.6,3.5l-4.6,4.3l-2.3,1.9l-1.6,2l-1.5,0.6l-1.5,1.3l-1.2,1.4l-0.8,2.1l-1.2,2
		l-0.9,2l-1.3,3.1l-1.6,3.1l-1.7,2.7l-1.2,2.4l-1.7,2.8l-0.8,2.1l-0.5,2.4l-0.5,2.1l-0.9,3.2l-0.1,2.1l-0.4,1.4l-0.5,1l-0.8,1
		l-1.8-0.1l-1.8-0.5l-0.7-0.4l-1.1,0.3l-0.8,1.4l-0.5,1.4l-1.8,3l-0.7,1.1c0.8,0.9,1.5,1.5,1.6,2.2c0,0.7-0.8,1.4-1.3,2.1
		c-0.7-0.6-1.5-1.1-2-1.7l-0.3,0.4l-2.5,2.1l-1.6,1.1l-1.2,1.7l-0.9,2.1l-0.5,2.8l-0.6,2.8l-0.6,3.1l-0.5,1.7l-0.6,3.1l-0.5,2.1
		l-1.2,2.1l-1.6,2l-1.5,1.7l-1.6,1.6l-1.5,1.3l-1.5,1.4l-1.2,1.7l-1.1,1.3l-0.8,1.7l-1.2,1.3l-0.7,0.6l-0.4,0.7l-2.3,1.2l-2.6,0.9
		l-1.9,1.3l-1.5,1.3l-1.2,1.3l-1.2,1l-1.8,1.3l-1.6,1.6l-1.2,2.1l-1.5,3.7l-0.7,1.4l0.1,3.6l0.8,4.9l0.7,5l0.3,1.4l0.3,1.2l0.9,1.8
		l2,2.3l2.7,2l1.3,1.2l1.4,0.5l1.4,0.5l1,1.1l0.3,1.1l-0.1,1.1l1,1.5l0.7,1.5l1,1.1l1.4,1.2l4.9,1.8l2,1.9l1.3,1.9l0.9,2.6l0.2,2.5
		l-0.6,2.8l-2,3.7l-0.9,2.5l-1.3,2l-1.3,1.8l-1.2,1.5l-1.5,1.7l-2.3,2l-2.7,1.9l-1.2,1.3l-0.5,2.1l0.3,1.1l0.6,1.4l1.2,0.9l0.9,0.7
		l0.3,0.7l-0.2,2.8l-0.6,3.8l-0.9,2.8l-0.2,3.2l0.3,1.1l-0.5,1.7l-0.8,1.7l-0.4,1l-0.5,2.1l0.2,1.8l0.3,0.7l1.1,4.3l-1.2,0.6l-1,0.5
		l-1.2,0.5l-6.6-0.1l-6.5-0.2l-4.6-0.3l-1.3,2.4l-0.9,1.7l-1.6,4.4l-0.7,2.1l-0.2,2.8l2.6,7.4l4.4,7.6l1.7,2.5l5,6.3l5.3-2.8
		l4.7,0.3l3-0.9l4.3,0.7l3.7,3.5l4.4,4.9l2.1,1.6l4.9,2.5l6,7.2l7,8.2l3.1,7.3l2.1,6.6l4.1,4.2l2.8,2l3.4,3.4l2.5,5.2l4.2,2.8l4-1.1
		l5.2-1.4l2.2-0.6l-1.3,2.8l0.5,3.6l3.4,2.7l-0.3,3.6l2.3,3.7v9.9l1,2.2l3.1,1.6l0,0c0.1-0.2,0.2-0.3,0.3-0.5c0.8,1,1.6,1.7,1.5,2
		c0,0.1-0.1,0.1-0.1,0.2l1,1l3,3.8l4.7,5.6l1.3,2.2l3.9,0.3l1.6-2.3l1-3.5l1.1-0.3l1.2-0.7l6.4,1.5l4.6,2.2l1.5,4.3l0.1,4.2l0.5,4
		l0.9,2.2l2.7,3l2.1,6.6l-0.2,2.8l-1.2,2.7l0.6,2.2l1,1.9l9.2,6.6l3,4.4l3.1,2l2.7-2.3l1.6-3.1l1.2-2.4l2.3-1.2l8.3,0.5l5,0.4
		l1.3,1.5l-0.7,4.6l2.8,0.6l3.6,1.3l2.4,1.6l-0.3,3.9l-3.1,3l-2.6,0.9l2.6,4.1l3.7,2.7l5.5,4.7l4.9,2.1l4.9,2.1l3.9,2l1.7,1.5l0,6.1
		l0.8,3.9l1.8,0.5l2.6-1.2l1.9-1.6l2.8,0.6l4.5,2.8l1.7,3.1c0.2-0.4,0.5-0.8,0.7-1.2c1.1-1.9,2.5-3.7,3.4-5.7
		c2.5-5.2,4.6-6.2,9.8-4.4c0.9,0.3,1.8,0.8,3.5,1.6c-1.1,1.8-1.6,2.9-2.3,3.8c-1.9,2.1-2.7,4-0.6,6.6c1.1,1.3,0.9,2.9-0.9,3.6
		c-1.7,0.7-3.2,0.9-4.6-1c-2.9-4.1-3-4.1-5.3,0.3c-0.2,0.4-0.3,1.1-0.6,1.3c-0.1,0.1-0.2,0.1-0.4,0.2l0.1,0.3v5l-1.6,3.1l-2,2.7
		l-0.2,2.9l2.1,1.2l2,2.3l-0.5,2.8l-1.9,0.6l-3.3,0.5l-0.5,2.5l0.2,1.8l3.2,0.2l5.2,3.5l3.2,5.2l3,4.9l2.4,2.6l1.3,1.2l5.9-1.3
		l4.1-1.5l2-3.1l0.6-4.2l1.3-3.8l1-2.7l2.9-0.8l4-0.1l1.6-1.6l2.6-1.2l7.8,1.6l8.6,1.3l13.1-0.9l0.9-2l1.6-2.4l5-0.3l3.5,1.7
		l0.9,1.8l-0.9,2.4l1.7,1.9l2.1,6.2l-3.8,2.5l-0.5,2.8l2.7,2.7l4.8-0.4l1.6,0c0.4-0.3,0.8-0.6,1.3-0.8c0.3-0.1,0.7,0.3,1.2,0.9
		l4.2,0.1l7.4,2.6l12.4-1.6l5.4,0.7l5.6,2.5l5.6,2.9l5.4,4.6l3.9,2l4.1,2.1l5.8,0.3l2.7,2.7l2.2,4.7l1.5,4l3.4,3.8l1.2,2.6l0.1,3.5
		l-0.6,3.8l0.5,4.3l0.8,3.9l0.3,6.8l-1.1,4.9l-2.1,4.1l-2.8,4l-0.5,1.7l-1,2.6c0.1,0,0.2,0,0.3,0c0.8-0.1,1.8,0.7,2.3,1.3
		c0.3,0.3,0,1.7-0.3,1.9c-2.6,1.1-2.6,3.2-2.5,5.6c0.1,2-0.1,4.4-2.9,4.1c-2.4-0.3-1.9-2.4-1.5-4.1c0.1-0.2,0.1-0.5,0.1-0.7
		l-3.6,4.4l-1.6,2.7l-1.7,4.5l-1.5,5.5l-1.8,5.2l-2.6,6.2l-3.4,2.9l-3.8,3.7l-3.5,4l-3.9,3.7l-1.4,3.8l-0.9,3.5l-1.4,5.3l-2.2,5.5
		l-3.4,6.9l-1.2,2.7l-3.2,4.8l-0.8,1.7l-0.9,2.4l-0.6,3.5l-0.1,1.8l-0.9,2l0.5,3.2l0.6,1.5l0.2,1.8l-0.6,3.1l-1,3.8l-1.3,3.1
		l-4.1,1.8l-0.6,3.1l0.9,2.5l2.2,4.1l-0.4,0.7l-1.6,3.1l-0.8,1.7l1.7,1.2l2.9,0.2l3.2,1.3l4.3,0.3l5.1,0l6.2-1.3l4.4-0.7l5.5-1.1
		l6.5-0.9l4-0.4l7.7-1.9l1.4-0.3l2.6-0.9l3.4-1.9l3.1-2.9l-0.5-2.9l-3.2-0.9l-2.2,0.5l-1.9,0.6l-2.5,0.2l-0.8,0.3l-2.6,0.9l-4.3,0
		l-2.4-1.9l0.5-1.7l2.3-2.3l6.8,0.4l2.2,0.2l3.3-0.5l4.1-1.1l0.4-0.3l0.2-3.5l-0.6-2.2l-2-1.2l-2.5-0.5l-1.8-0.8l-0.3-0.8l-0.5-3.6
		l1.9-1.3l2.8,1.3l2.7,2l3-1.2l0.9-2.4l-0.3-1.8l-0.9-2.2l-1.3-1.9l0.1-1.8l0.8-0.3l1.8-0.9l1.1,0.4l1.9,2.6l2.9,0.2l2.9-0.8
		l4.5-1.8l2.5,0.9l1,1.5l1.4,1.5l0.3,0.4l-1.6,2.7l-0.5,1.4l-0.8,1.8l-1.9,1.3l-3.4,1.5l-2.1,0.2l-1.7-2.2l-2.9-0.2l-0.8,0.7
		l-1.5,0.9l-0.6,3.1l0.9,2.6l0.9,2.9l-0.2,3.2l-1.4,4.9l2,2.3l1.1-0.6l0.8-1l1.6-2.1l3.7-2.2l4.5-2.5l3.8-1.9l3.8-2.9l3.9-4l5.4-4.3
		l5.3-3.5l7.6-5.2l5.4-5.3l3.2-5.1l0.2-2.5l-0.6-2.5l-2-2l-1.9-3.3l0.1-1.8l-0.6-2.2l-1.3-2.2l-0.7-1.5l-0.5-2.2l1.2-1l3.9-0.1
		l2.6-1.6l1.3-4.1l1.8-5.2l2-4.1l1.7-2.8l3.4-2.9l1.5-1l1.6-1.3l0.8-1.4l0.6-3.2l-0.5-2.9l-1.1-0.8l-0.7-0.4l-0.7-4.6l-0.9-7.5
		l-1.1,0.3l-4.5,3.6l-4.2-7.7l1-4.2l1-3.4l4.7-0.7l3.6-0.4l4-0.4l2.6-0.9l1.4,0.1l1.7,2.6l0.2,2.5l-0.1,1.1l0.2,1.8l0.4,4.7l-1,3.1
		l-1.6,3.1l-0.5,2.8l1.2,4.4l1,1.5l1.6,2.6l0.9,2.5l-0.8,1.7l-2,1.7l-3,1.5l-4.7,1.1l-1.7,3.7l-0.9,2.1l-2,3l-0.6,3.8l-0.5,2.5
		l1,7.1l2.6-1.6l0.8-0.6l1.1-0.6l2-2.3l3.5-3.7l3-2.2l4.2-3.3l3.6-5l2.8-4l3.3-6.2l4-6.5l3.2-4.7l3.2-4.4l4.3-3.9l3.6-4.4l0.2-3.5
		l-1.2-4.3l-0.7-0.4l-1.4-0.5l-6.2,1.3l-3,1.5l-2.9,0.5l-0.6-0.8l0-0.7l1-3.8l1.3-3.1l-2.5-0.2l-3.6-0.2l-2.4-1.3l-1-0.8l2.7-2.6
		l9-0.4l1.6-2.7l0.2-2.9l0.9-3.1l0.2-2.5l2-2l0.7-0.3l2.9-0.6l0.6,1.2l-0.5,1.7l-0.5,2.4l-0.9,2.4l-1.3,3.1l-0.3,3.9l0.6,1.5
		l1.1,0.8l1.4-0.3l2.3-1.2l1.5-0.9l1.3-2.8l0.8-2.1l1.6-3.4l0.9-2.1l3.4-1.6l3-1.9l2.8-4l2.4-3.1l1.3-3.4l2.5-4.4l1.8-4.2l1.6-2.4
		l2.7-2.6l3.2-4.4l2.8-3.7l4.2-4l0.6-3.8l-1-1.1l-2.8-1.3l-2.5-0.9l-1-1.5l1.5-0.9l2.1,0.1l1.5-0.2l1.6-2.4l0.5-1.7l0.1-2.8l3-1.2
		l2.9,0.6l2.4,0.5l4.1-0.8l3.8-2.6l3.1-2.6l2.8-4.1l3.8-7.5l2.1-5.1l3.6-4.7l6.2-5.9l7.3-5.2l6.6-1.3l7-2l3.8-1.8l3.1-9.4l-1.9-4.4
		l-1.6-1.9l-3.3,0.1l-4.1,1.1l-2.3,2l-4.1,2.6l-3.4,1.9l-4.1,2.2l-3.5-1.7l-3-2.7l-1.1,0.3l-1.1,0.3l-1.2,2l-0.5,1.4l0.3,0.7l1,1.5
		l0.6,1.8l-0.1,2.1l-0.5,2.1l-2,2l-2.7,1.6l-1.8,0.9l-3.8,2.2l-2.6,2.6l-1.1-0.4l-0.6-2.2l1.8-5.2l3.1-8l1.2-1.7l-0.5-3.3l3.3-16.7
		l5.1,0l5.6-2.8l10.7,1.5l4.8,3.2l5.1,0l4.2-3.9l3.1-3.4l-0.8-4.6l-2.2-5.1l4.2-7.5l1.6-2.8l2.2-0.9l4.1,3.1l2.4,1.7l3.7-0.2l0.8-7
		l3.2-3.7l2.6-1.6l2.1-8.7l1.1-5.2l6.3-2.4l2.2-0.2l6.8,0.8l3.8,2.4l0.6,1.8l0,3.2c0.3-0.2,0.6-0.5,0.9-0.7c0.3-0.2,1.1,0.6,1.7,0.9
		c-0.7,0.9-1.3,1.9-2.1,2.6c-0.1,0.1-0.3,0-0.7-0.2l-0.2,0.6l-0.1,1.1l-4.3,4.3l-4.1,1.8l1.7,2.2l1.8,0.1l-0.9,2.8l-0.4,0.3
		l-1.9,1.7l-1.6,1.3l-2.2,1.6l-1.9,0.9l-3.3,1.5l-2.6,0.9l-0.5,2.5l-0.8,2.1l-0.2,3.5l-1.3,3.1l-1.2,2.4l-2.3,2.3l-1.9,1.6l-1.7,3.5
		l-0.5,1.4l1.1,0.8l1.4,0.1l2.5,0.5l2.6-0.9l3.1-3l2.7-2.6l3.4-1.9l5.3-3.2l5.7-4.5l5.3-3.2l6.2-1.7l7.4-2.4l5.5-1.7l6.7-3.4
		l7.8-4.4l7.9-4.1l4.1-2.9l-0.3-1.1l0-0.7l-0.2-1.8l-0.3-1.4l-0.5-2.6l-0.6-2.9l-1.3-1.5l-2.1-0.5l-3.9-1l-0.7-0.8l0.4-1.4l0.9-1.7
		l-0.6-2.5l-1.3-1.2l-3.6-1l-1.4,0l-0.7,0l-0.3-1.5l0.9-2l0.2-2.1l-3.1-2.3l-6.6-2.6l-6.1,0.3l-5.9,1.3l-3.8,3l0.5-8.1l-1.1-9
		l2.3-2.3l9.2-2.2l7.4,7.2l1.2-12l2.8-4.1l4.7,0.7l2-3.4l-0.3-5l1.5-1.7l3.2,0.6l0.6,2.9l5.7,1l1.7,0.5l0,0.7l-0.9,2.8l1.5,5.4
		l2.2,4.1l1.6,2.9l3.4,3.1l3-1.9l5.3-2.9l-2.8-6.9l-2.3-3.8l-0.8-4.3l1.6-2.7l3.6,0.3l1.3-2.8l-3.1-6.6l-4-0.6l-0.9-2.5l3.5-3.7
		l6,1.1l1.2,3.7l4.2,1.4l2.4-2.7l-1.5-5l-2.5-1.6l-2.6-5.1l0.8-6.4l-5.6-7.1l0.9-8.1l0.2-2.5l2.9-0.8l-2-6.9l5.9-7.4l3.4,2.7l0,5.3
		l0.9,3.2l3.2-0.1l4.3,0l6.5,1.2l5.3,1.4l-0.8-5.1l2.3-1.9l3.8,2l0.2,3.5l5.7,1.5l5.2-2.5l-1.8-3.7l3.8,2.7l-1.3,2.1l-0.8,2.1
		l2.3,2.6l0.6,1.8l-2.9,0.5l-1.1,1l0.1,2.9l-0.5,2.4l-0.9,2.8l0.7,0.8l0.6,1.1l4.2-2.5l4.3,0.3l3.9,1.3l0.3-4.3l1.9-2.3l5-4.6
		l-1.3-3l-0.1-3.2l1.2-2.4l-3.7-3.8l-4.6-2.1l-2.7-2l-1.3-2.9l-1.3-1.5l-2.8-0.9l-0.5-3.2l-0.3-2.1l-2.3-1.9l-2-2.3l-0.5-3.2
		l0.7-4.5l0.9-2.1l2.1,0.1l1.3,2.6l2.5,0.9l1.6-2.8l0.9-2.1l0.5-1.7l3.3-1.2l2.9-0.1l0.6-3.9l1-4.9l1.7-3.5l3.8-1.8l2.2-1.3l1.1-0.3
		l1.3,1.9l1.6,3.3l1.8,0.1l0.6-3.1l-0.5-3.2l0.8-1.8l4.4-1.1l1.4,1.5l1.9,2.7l3.7-0.2l2.2-0.6l1.6-1.3l-0.9-2.5l-1.2-2.6l0.5-2.1
		l-4.1-12.9l2.7-2.3l1.2-2l0.3-3.9l2.5,0.9l2.6-0.2l0.4-0.7l-1.3-2.9l-0.3-5.7l1.2-1.7l1.5-0.6l0.7,0.8l2.5,0.9l4.4-1.1l1.9-1.6
		l2.5,0.5l1.7,1.2l1.4-0.3l2-2.7l0.4-0.7l0.9-3.5l3.4-2.2l0.5-2.1l-0.1-2.9l1.5-0.9l1.2-1.7l2-2l4.3-0.4l4.5-2.6l2.6-1.2l1.9-1.3
		l-0.3-1.4l-2.5-0.9l-2.1-0.5l-0.7-0.8l1.3-2.8l1.2-1.7l1.7-2.7l4.4-1.8l1.5-0.7l0.3-4.2l1.3-3.1l1.8-0.2l3.1,1.6l2.5-0.2l0.9-2.8
		l0.8-1l1.9-0.9l1.1-1.3l0.5-1.4l-3.8-1.3l-3.6-0.3l-1.8-0.5l-1.8-0.8l-0.6-1.5l-1-1.5l0.1-1.4l2.9,0.1l2.1,0.5l1.5,0.1l2.5-0.2
		l0.5-2.1l-1.3-1.9l-0.6-1.8l1.4-4.6l0.1-1.8l-0.3-1.1l-4.3-1l-5.3-1.1l-2.8-0.9l-2.5-0.9l-0.5-3.9l0.6-3.1l0.3-3.6l0.5-2.1l0.1-1.4
		l0.9-2.8l1.6-1.4l0.8-1.7l1.6-2l1.1-1.3l0.1-1.8l-1.6-2.7l-0.9-2.2l-1.2-3.6l2.7-2.6l2.3-2l3.4-2.6l1.8-5.6l-0.1-3.9l2.1-5.1
		l5.6-2.1l3.7-0.8l-0.5-3.2l-2.8-0.9l-2.9,0.1l-1.7-0.8l0.1-2.5l3-1.6l4.1-0.8l3.7-1.5l2.4-3.4l2.1-5.1l0.6-3.1l1.3-2.8l1.5-1
		l2.9-0.5l2.9-0.8l1.9-1.6l-2-3l-2.1-0.9l-3.5-0.6l-2.6,0.6l-2.9-0.2l-2.5-0.9l-1.4-0.4l-0.7-1.1l0.9-2.8l1.5-0.2l2.5-0.2l4.6,0.3
		l2.2-0.2l1.7-2.7l-0.2-2.6l0-4.6l1.8-4.1l2.2-5.6l4-6.1l2.5-4.1l2.4-2.7l3.4-2.6l1.8-0.9l2.2-0.9l1.5-1.3l0.2-2.5l-1-1.5l-2.1-0.9
		l-3.2,0.1l-3.9-0.3l-4.7-0.3l-4.3-0.7l-4.3,0.7l-2.1-0.9l-2.4-1.9l-3.1-2.3l-2.7-3.1l-2.1-1.2l-3.8-1.3l-2.5-0.2l-3.3,0.2l-1.1-0.1
		l-1.3-1.2l0.3-3.9l-0.3-1.4l5.8,0.1l2.5,0.2l2.6-0.5l2.6-0.6l2.7,2.4l1.4,1.5l3.7,3.8l3.6,1l4.2,1l2.8,0.9l2.2-0.2l2.3-1.9l1.2-1.4
		l1.8-0.2l2.5,0.5l1.9-2l1.3-3.1l0.5-2.5l0.9-1.3l-0.3-1.1l-0.6-2.2l-0.3-1.4l1.6-1.3l1.3-3.8l1.6-2.7l0.1-1l-0.6-1.5l-2.1-1.6
		l-1.3-1.9l-1-1.2l0.5-1.7l1.9-1.3l0.5-1.4l0.1-1.8l-1-0.8l-2.1-1.6l-1.9,0.9l-1.5,1.7l-3.3,0.8l-4.2-1.7l-2.1-1.6l-0.9-2.9l1.7-3.8
		l1.6-1.3l0.8-1.4l3.2,0.9l3.1,1.3l3.2,0.2l1.2-1.3l2.3-2l1.4,1.2l1.8,0.8l2.2-0.6l1.3-2.8l-1.3-2.2l-2-1.9l-4.2-1.7l-7.2-0.5
		l-1.7-0.5l-0.6-2.2l3.9-4.4l-1.3-1.9l-3-3l-1.4-1.2l-0.3-1.4l2.3-1.9l2.9,0.2l2,2.3l2.3,3.7l2.7,2.3l2.1,1.2l2.5,0.9l3.3-0.8l2,1.9
		l0.5,3.2l1.3,2.3l2.5-0.2l4-0.1l2.2-5.1l-0.5-4l5.3-3.5l1.6-2.3l1-4.2l0.5-1.4l-0.1-3.2l-3.9-1l-5.1,0.7l-4,1.5l-4,1.2l-1.3-2.3
		l-3.6-0.3l-3.6,0.5l-2-1.9l-1.7-2.3l-3.6-0.6l-2-2.3l0.6-3.1l4-1.5l3,3.7l6.4,1.5l4.6,1l4.2,1.7l3.7-1.1l3-0.9l3.8-2.2l2.2-1.3
		l3-1.9l2.3-1.3l4.6,1.4l0.7,0.4l-0.5,1.8l-1.2,2l-1.4,3.8l-1.7,3.8l-0.3,3.9l0,4.6l-0.6,8.1l0.2,2.9l-1.2,5.6l-1.3,3.1l-1.3,3.1
		l-2.3,4.4c1,0.6,1.8,1.7,2.2,2.7c0.1,0.4-1.6,1.4-3,2.6c-0.2-0.4-0.4-0.7-0.6-1.1l-1.9,4.8l-0.7,5.3l-1.5,4.8l-1.4,4.9l-2.1,5.1
		l-2.7,2l-1.6,1.3l0.1,2.8l1,1.8l2,2.3l1.2,3.3l0.1,3.5l-1,4.2l-1.3,3.9l-2,3l-1.2,2.4l-1.2,2.1l-1.5,5.9l-1.2,6l-1.1,5.2l-1.1,4.9
		l-0.6,3.1l-0.4,5.7l0.1,3.5l-0.7,5.7l-1.6,6.9l-1.5,6l-0.8,5.9l-0.1,6.8l-0.4,7.1l-0.2,2.8l-2.2,4.8l-2.5,5.1l-1.2,2.4l-0.2,2.2
		l-0.6,3.5l0.9,3.6l0.9,2.9l-0.2,3.2l-1.9,2.7l-2.1-0.5l-2.4-1.2l-1.5,0.9l-0.5,1.4l-0.5,2.1l1.8,0.1l2.5,0.5l1.3,1.2l1.6,2.6
		l2.2-0.2l0.7-0.3l0.5-1.8l1.6-2l0.9-2.8l1.3-3.4l1-4.2l0.9-13.4l1.1-5.6l1.3-3.8l1.3-3.1l1.5-6.3l0.4-5.7l1-4.2l1.5-6.3l2.2-6.2
		l1.2-6l0-4.2c-0.2-0.2-0.4-0.5-0.4-0.6c0-0.3,0.2-0.6,0.4-0.9l0-0.7l0.1-7l2.6-11.9l1-9.5l1.9-6.6l2.4-9.4l1.6-7.4l1.8-5.2l1.9-6.3
		l2.3-8l2-14l3.7-11.1l0.2-7.1l-0.1-3.9l2-7.7l1.7-3.8l1.8-5.2l1.7-3.5l2.9-5.8l1.7-4.5l1.8-5.2l1.9-7l0.7-4.5v-5l0.3-3.9l-1-1.8
		l-0.3-0.4l-2.4-1.6l-5-1.3l-6.5,0.6l-1.5,0.9c0.6,1,1.1,2.3,0.8,3.1c-0.8,2.1-2.8,2.6-5,1.6c-0.7-0.3-1.4-0.8-1.7-1.4
		c-0.1-0.2-0.2-0.3-0.3-0.4l-2.3,0.6l-5.6-2.5l-3.6-0.6l-3.9-4.9l-0.8-5l-0.7-9.6l1.2-2l1.5-1l0.6,2.5l1.1,4l2.2,5.2l3.1,2.3
		l1.5,2.1c0.4-0.2,0.8-0.4,1.2-0.6c1.1-0.5,3,0.1,4,0.9c0.4,0.3,0.9,0.6,1.3,0.9l4.4-1.8l4.1-1.8l1.5-0.9l1.7,0.8l2.4,1.2l4.7,0.7
		l3.9-3.7l0.9-7.3l0.5-7.4l1.3-8.8l2.7-8l1.5-5.5l2.7-8l1-3.9l0.6-4.2l-1.3-2.2l-1.8-0.5l-4.1,1.8l-4,1.1l-5-1.1l-5.2-2.5l-3.7-4.1
		l-1.6-1.9l-0.3-2.1l1.7-2.8l3.2,0.9l2.7,2.7l1.7,1.5l3.2-0.1l1.6-2.4l0.9-1.7l2.9,0.2l1.6,2.6l1.4,1.5l3.8,2l2.9-0.1l2.6-1.2
		l1.8-5.9l3.3-6.5l2.2-5.2l0.6-7.8l0.3-5.3l2.2-4.8l1.6-3.1l2.9-4.8l3.4-7.6l1.4-5.2l2.3-6.2l2-8.7l0.1-6.3l-0.1-4.3l0.9-7.8
		l1.8-5.2l3.2-4.8l1.9-6.6l0.5-1.4l1-4.2l-0.9-7.5l0.6-8.8l1.6-8.3l1.2-6.3l0.4-6l0.7-5.2l-0.6-1.8l-0.3-1.1l-1.2-4l0-5.3l0-5.4
		l-1.1-6.1l-0.2-6.8l0.2-4.3l-1.6-2.6l-0.8-4.3l-1.7-6.5l-1.4-5l-1.6-3.3l-3.6-5.6l-1.7-1.2l-3.1-2.3l-1.7-1.5l-2.9,0.8l-1.9,1.3
		l-0.1,2.1l2.8,2l1.2,3.6l0.2,2.5l-0.2,3.5l0.1,4.3l3.9,1l2.5,0.2l1.4-0.2c0.6-0.2,1.2-0.5,1.9-0.4c0.4,0,0.8,0.9,1.6,1.8
		c-0.5,0.2-0.9,0.4-1.3,0.6l0.5,0.6l-0.2,2.8l-1.6,2.8l-0.2,2.5l2.7,8.3l3.4,9.1l1.5,4.8l-0.2,3.5l0.4,5l-0.1,1.8l0.2,2.5l0.5,3.2
		l-0.2,3.2l-0.2,7.1l0.4,5l-1.6,6.2l-1,4.6l-1.8,4.8l-2.9,5.1l-2.5-0.2l-2.5-0.5l-2.2,1.3l0.5,3.3l-1.5,2l-0.5,1l-1.6,2.4l-2.8-0.9
		l-0.6-1.8l-2.5-0.9l-2,2.3l-1.2,2.1l-1.1,1l-2.2-0.2l-1-1.5l0.2-2.5l1.7-2.7l-0.9-3.2l-1.6-2.6l-0.3-2.2l2.5,0.2l3.2,1.3l4.7-1.4
		l1.2-2.4l-1.3-2.2l3.1-2.3l4.8-1.8l3.8-2.9l1.8-3.8l0.7-4.9l-0.5-2.2l-3.5-1.7l-3.1-1.6l-3.2-1.3l-4.7-0.7l-3.4,1.9l-3.6,0.4
		l-2.6,1.6l-2,3.8l-1.9,0.6l-4.3,0l2.4-8.7l1.9-1.6l2.5-0.9l1.8-0.2l3-2.3l2.7-1.9l1.5-1.7l3.3-1.2l2.8,1.6l4.3,1l1.2,2.3l1.4,1.2
		l1.7,1.9l1,1.5l2.2,0.2l0.6-2.8l-0.4-3.9l-0.1-4.6l-0.1-3.6l-2.7-3.4l-1.9-3.7l-2.3-3.8l-4.9-2.5l-12.8-2.6l-5.7-1.5l-3.5-2.4
		l0.3-0.6c-0.9-0.6-1.9-2-1.7-2.7c0.3-1.3,1.7-2.4,3.3-4.3c0.4,0.5,0.8,1,1.1,1.4l3.4-6.9l-5.3-1.8l-2.7-2.7l-5.2-3.5l-3.7-3.8
		l-6.5-4.7l-8-3.7l-5.7-1.5l-3.1-2.7l-4.1-3.5l-4.4-3.1l-3.3-0.2l-1.1,0.3l-1.7,1.8c0.4-0.3,1-0.6,1.4-0.8c0.3-0.1,1.1,1.2,2.1,2.3
		c-1.4,0.8-2.2,1.6-3.2,1.7c-0.4,0-1.6-1.7-1.4-2.1c0.1-0.1,0.1-0.2,0.2-0.3l-1,1.1l-5.4-0.4l-6.4-1.5l-4.7-4.6l-2.7-2.3l-3.5,3.6
		l-4.5,7.5l-10.6-2.9l-4.4-3.8l-3.8-1.3l-4.6-1.7l-0.4-0.2c-0.4,0.4-0.9,0.7-1,0.7c-0.8-0.4-1.8-1.1-1.9-1.8c0-0.2,0.1-0.4,0.2-0.6
		l-4.6-2.9l-6.5-4l-4.9-2.8l-3.4-8.4l-0.1-4.6l-0.4-8.9l1.6,2.2l2.8,0.6l2.1-3.4l0.2-3.5l-0.1-2.9l0.9-2.4l0.5-2.8l1.2-2.4l1.7-2.7
		l2.3-2.3l1.7-2.8l0.5-2.8l-0.9-3.6l-0.3-5l1-3.8l1.7-3l2.8-4.8l4.2-2.9l3-1.3l3.3-0.5l5.1-0.3l1.9-2l1.8-5.9l1.6-7l-3.3-25.1
		l2.5-4.8l2.8-3l3.4-2.2l4.1-2.5l5.5-0.7l3.6,0.6l4.2-2.5l2-3l3.2-4.1l16.5,1.5l-1.4,4.1l-0.9,2.8l-0.1,1.5l1,1.1l4-0.1l1.6-0.8
		c-0.6-0.4-1.1-0.7-1.7-1.1c1.1-1.6,2.2-3.2,3.4-4.9c0.4,0.3,0.9,0.7,1.3,1c-0.1,1.3-0.1,2.7-0.2,4.3l3.6,0.3l3.2,0.6l2.5,0.2
		l2.1,0.5l2.6-1.2l-0.9-2.5l-2.7-2.4l-1-2.2l2-3l2.8,0.9l5.6,2.5l2.1,0.9l2.1,0.8l2.1,0.9l1.9-1.3l-1.6-3.7l-4.2-2.1l-2.8-1.6
		l-1.6-2.9l3-1.2l3.6,0.3l4.1-2.6l1-4.2l1.3-2.4l1.8-0.6l4,0.3l2.1-0.2l2.4-3.4l2-2.7l1.5-1l3.4-2.6l0.8-1.4l1.3-2.1l4.4,1.2
		l0.1-0.4l2.2-8.8l3.5-15l2.6-9l0.3-1.1l1.4-5.3l1-3.8l2-3.3l2.8-3.3l3.4-5.5l5.3-8.2c-0.1-0.1-0.2-0.2-0.3-0.2
		c0.7-0.8,1.4-2.3,2.1-2.4l2-3.1l1.2-1.7l5.2-7.8l4.5-7.4l4.1-8l1.1-2l9.4-18.2l8.8-19l1.2-2.8l4.5-10.6l4.2-9.2l3-9l5.2-15.3l3-9.3
		l5-15.6l2.1-6.3l2.4-12.1L1329.3,564z M627,544.8c-0.4,0.1-1.5-1-1.5-1.2c0.4-0.8,0.9-1.5,1.6-2c0.2-0.1,1.1,0.7,2.2,1.5
		C628.4,543.9,627.8,544.6,627,544.8z M567.9,801.7c-0.8-1-1.7-1.7-1.7-2.4c0-0.5,1.1-1.1,1.7-1.7c0.5,0.7,1.2,1.4,1.4,2.2
		C569.4,800.2,568.6,800.8,567.9,801.7z M581.5,797.6c-0.8-0.3-1.5-0.9-2-1.5c-0.1-0.1,0.7-1,1.4-2.1c0.7,0.9,1.5,1.4,1.7,2.2
		C582.7,796.5,581.7,797.7,581.5,797.6z M592.3,777.2c-0.8-0.1-1.6-1.4-2.9-2.6c1.4-0.7,2.4-1.7,2.9-1.5c1,0.4,1.7,1.4,2.6,2.2
		C594,776,593.1,777.2,592.3,777.2z M1022,1701.8c0.4,0.5,0.7,1.1,1.2,1.8c-0.7,0.4-1.3,1.1-1.8,1c-0.5-0.1-0.9-0.9-1.3-1.3
		C1020.7,1702.8,1021.3,1702.3,1022,1701.8z M1165.7,1453.3c-1-0.8-2.1-1.3-2-1.5c0.3-0.8,0.8-1.5,1.4-2.1c0.1-0.1,1.5,0.6,1.5,1
		C1166.6,1451.5,1166.1,1452.2,1165.7,1453.3z M1180.7,1364.7c-0.5-0.5-1.4-1-1.3-1.4c0.1-0.8,0.8-1.4,1.5-2.5c0.8,1,1.7,1.8,1.6,2
		C1182.1,1363.5,1181.3,1364.1,1180.7,1364.7z M1212.3,1220.4c0.7,2.6,1.1,4.5,1.6,6.3c-0.5,0.4-0.7,1-1.1,1.1
		c-2.7,0.6-4.4-0.9-4.9-3.3C1207.4,1222.1,1209.4,1221.2,1212.3,1220.4z M1236.7,1089.4c0.5,0,0.9,0.7,1.6,1.2
		c-0.7,0.6-1.5,1.5-1.6,1.4c-0.6-0.4-1.1-1.1-1.6-1.7C1235.6,1090,1236.1,1089.5,1236.7,1089.4z M1209.7,989.3
		c0.8,1.3,1.3,2,1.7,2.7c-0.8,0.4-1.5,1-2.3,1.1c-0.4,0-1.3-1-1.2-1.3C1208,991.1,1208.7,990.5,1209.7,989.3z M1251,656
		c0,0.8-1.1,2.3-1.8,2.4c-0.8,0.1-2.2-1-2.4-1.8c-0.2-0.8,0.9-1.8,1.7-3.4C1249.7,654.4,1251,655.2,1251,656z M1205.8,514
		c0.3,2.3,0.6,4.8-1.5,6.8c-2.9-0.6-4.1-2.9-4.5-5.2c-0.2-1.3,0.6-3.3,1.7-4.3C1202.4,510.3,1205.6,512.2,1205.8,514z M1203.7,529
		c-1.5,0.9-2.2,1.7-2.9,1.6c-0.7-0.1-1.3-1-1.9-1.5c0.6-0.6,1.2-1.5,1.9-1.6C1201.5,527.5,1202.3,528.2,1203.7,529z M1199.9,487.4
		c0.5,0.8,1.3,1.3,1.2,1.8c-0.1,0.5-0.9,1-1.3,1.4c-0.5-0.5-1.3-0.9-1.3-1.4C1198.5,488.7,1199.2,488.2,1199.9,487.4z M1194.4,496.8
		c1,1.4,1.7,2.2,2.1,3.2c0.1,0.2-1.1,1.4-1.4,1.3c-1-0.4-1.8-1.2-2.7-1.8C1193,498.7,1193.5,498,1194.4,496.8z M1190,503.9
		c2.5,0.2,5,0.4,6,3.2c0.2,0.4-0.5,1.7-0.9,1.8c-3.2,0.3-4.6-1.9-6-4.2C1189.6,504.1,1189.8,503.8,1190,503.9z M1191.1,519.3
		c-1.2,0.4-2.1,1.1-2.8,0.9c-0.6-0.2-0.8-1.3-1.2-2.1c0.8-0.3,1.7-0.8,2.5-0.8C1190,517.3,1190.4,518.3,1191.1,519.3z M1185.7,506
		c0.6,0.6,1.4,1.2,1.7,2c0.1,0.3-0.6,1-1.3,2c-0.8-1.1-1.5-1.8-1.7-2.6C1184.3,507.1,1185.2,506.5,1185.7,506z M1169.8,494.5
		c0.5,0,0.9,0.7,1.6,1.3c-0.7,0.6-1.5,1.4-1.6,1.3c-0.7-0.5-1.2-1.2-1.7-1.8C1168.7,495,1169.3,494.5,1169.8,494.5z M1124.4,471.3
		c1.1,1.4,2.3,2.4,2.2,2.8c-0.7,1.4-1.9,2.6-2.9,3.8c-0.8-0.8-2.3-1.8-2.2-2.2C1122.1,474.3,1123.2,473.1,1124.4,471.3z
		 M1059.8,387.5c0.8,0.3,1.7,0.9,2.3,1.6c0.2,0.2-0.4,1.1-0.9,2.3c-1.2-1.1-1.9-1.9-2.7-2.6C1058.8,388.3,1059.5,387.4,1059.8,387.5
		z M1039,394.9c0.5-0.3,1.3,0.1,2.1,0.2c0,0,0-0.1,0-0.1c0,0,0.1,0,0.1,0.1c-0.2-2.3,0.6-4.3,3.1-3.4c3.7,1.3,1.4,3.6,0.6,6.2
		c-1.5-1.2-2.6-2-3.7-2.8c0,0,0,0,0,0c0,0-0.1,0-0.1,0c0,0.7,0.2,1.7-0.2,2c-0.7,0.7-1.7,1.2-2.7,1.5c-0.3,0.1-1.4-1.3-1.2-1.4
		C1037.4,396.3,1038.1,395.4,1039,394.9z M1043.9,412.8c-1,0.7-1.6,1.1-2.2,1.6c-0.8-1.1-1.5-2.2-2.3-3.3c0.6-0.3,1.5-0.9,1.8-0.7
		C1042.2,410.9,1042.9,411.9,1043.9,412.8z M1012.9,359.9c0.7,0.1,1.3,0.8,2.2,1.5c-0.9,0.8-1.7,1.6-1.9,1.5
		c-0.7-0.4-1.3-1.1-1.6-1.8C1011.5,361,1012.6,359.8,1012.9,359.9z M1007.2,346.3c0.7,0.9,1.5,1.7,1.4,1.9c-0.5,0.7-1.2,1.3-1.9,1.6
		c-0.2,0.1-1.3-1-1.2-1.2C1005.8,347.8,1006.5,347.2,1007.2,346.3z M991.9,341.8c0.4-0.5,1.9-0.7,2.4-0.3c1.7,1.2,3.5,2.7,2.4,6.6
		c-2-1.5-3.7-2.4-5-3.7C991.3,343.9,991.4,342.4,991.9,341.8z M969.7,363.9c0.3-0.8,1.1-1.3,1.7-2c0.5,0.6,1.5,1.3,1.4,1.9
		c-0.1,0.7-1,1.3-1.9,2.2C970.3,365,969.5,364.3,969.7,363.9z M930.6,324.5c0.5-0.2,1.3,0.4,2.8,1c-2,1.3-2.6,2-3.3,2.1
		c-0.3,0.1-1.3-1.1-1.1-1.4C929.2,325.5,929.9,324.8,930.6,324.5z M893.6,301c0.9,0.4,1.5,0.5,1.7,0.8c0.7,1.1,1.3,2.3,1.8,3.5
		c0,0.1-1,0.8-1.1,0.7c-0.9-1-1.8-2-2.5-3C893.3,302.7,893.6,302.1,893.6,301z M816,327.4c0.5-0.1,1.1,0.6,1.9,1.1
		c-0.7,0.7-1.2,1.5-1.7,1.5c-0.5,0-1.3-0.7-1.4-1.2C814.8,328.4,815.5,327.5,816,327.4z M805.2,374.2c0.7,0.4,1.5,0.7,2.4,1.2
		c-0.7,1-1,1.6-1.4,2.1c-0.6-0.5-1.5-1-1.8-1.6C804.2,375.6,804.9,374.8,805.2,374.2z M798,377.8c1.1,1,2.1,2.1,3.2,3.2
		c-0.3,0.4-0.6,0.7-0.9,1.1c-1.3-0.9-2.7-1.8-4.4-3C797,378.4,797.9,377.6,798,377.8z M790.1,378.3c0.2,0,0.5,0.7,0.8,1
		c-0.5,0.3-1,0.8-1.6,1c-0.1,0-0.5-0.7-0.9-1.3C789,378.8,789.5,378.4,790.1,378.3z M783.4,342.6c0.6,0,1.3,0.5,2.3,1
		c-1.5,1.1-2.3,1.9-2.5,1.8c-0.6-0.5-1.1-1.2-1.6-1.9C782.2,343.1,782.8,342.6,783.4,342.6z M775,405c0.9,1.6,1.6,2.7,2.2,3.8
		c-0.8,0.4-1.8,1.2-2.3,1c-0.9-0.5-1.6-1.5-2-2.5C772.8,406.9,773.9,406.1,775,405z M745.5,418.1c0.5,0.1,0.9,0.9,1.5,1.6
		c-0.8,0.4-1.7,1.1-2,1c-0.6-0.4-0.9-1.2-1.4-1.9C744.3,418.5,744.9,418,745.5,418.1z M717.9,449.3c0.5,0,1.3,0.8,1.4,1.4
		c0.2,2-1.9,4.4-4.5,4.7c-0.4-0.5-1.3-1.2-1.3-1.9C713.6,451.2,715.8,449.1,717.9,449.3z M706.8,439.7c0-0.6,1.1-1.3,1.8-1.9
		c0.8,0.8,2,1.5,2.1,2.4c0.1,0.8-1.1,1.7-2.3,3.3C707.6,441.7,706.8,440.7,706.8,439.7z M630.6,917.6c-0.1,0.5-0.9,0.9-1.4,1.3
		c-0.4-0.5-1-1-1.1-1.5c0-0.6,0.5-1.2,1-2.4C630.1,916.6,630.7,917.2,630.6,917.6z M647.4,889.6c-0.8-1.2-1.7-2-1.7-2.7
		c0.1-0.7,1.1-1.3,1.8-2c0.6,0.7,1.7,1.3,1.8,2C649.3,887.5,648.3,888.3,647.4,889.6z M688.5,1031.6c-0.5-0.8-1.2-1.4-1.2-1.8
		c0.1-0.5,0.8-1,1.3-1.4c0.5,0.5,1.3,1,1.3,1.4C689.9,1030.3,689.1,1030.8,688.5,1031.6z M795,1147.6c-0.6-0.2-1.1-1.2-1.6-1.9
		c0.7-0.5,1.3-1.4,2-1.4c0.6,0,1.2,1,2.3,2C796.5,1147,795.6,1147.8,795,1147.6z M795.9,1340.2c0.5,0.1,0.9,0.8,1.5,1.5
		c-0.6,0.5-1.1,0.9-1.5,1.3c-0.5-0.6-1-1.2-1.5-1.9C794.9,1340.7,795.4,1340.1,795.9,1340.2z M794.4,1322.1c0.1-0.5,0.8-1.2,1.3-1.3
		c0.3-0.1,1.2,0.8,1.2,1.2c0,0.5-0.7,1-1.4,1.8C795.1,1323.1,794.3,1322.5,794.4,1322.1z M794.3,1308.1c0.9,0.6,1.6,1.3,2.8,2.3
		c-1.1,0.7-1.6,1-2.2,1.3c-0.6-1-1.1-2-1.6-3C793.2,1308.7,794.1,1308,794.3,1308.1z M799.6,1390.2c0.3-0.2,1.7,0.7,2.2,1.3
		c0.3,0.4,0.2,1.9-0.1,2c-2.8,1.4-5.7,3.1-8.7,3.6c-2,0.3-4.1-1.4-4.8-4.6C792.5,1392.9,796.4,1392.7,799.6,1390.2z M807.4,1355.6
		c0,2-1.5,3.3-3.4,3.2c-0.8-0.1-2.2-1.9-2-2.5c0.5-1.4,1.8-2.5,3.2-4.4C806.3,1353.7,807.4,1354.6,807.4,1355.6z M805.6,1276.2
		c0.6-1.3,1.9-2.3,3.3-4c0.9,1.6,1.7,2.3,1.7,3.1c0,2-1.2,3.3-3.2,3.2C806.7,1278.5,805.4,1276.6,805.6,1276.2z M788.6,1387.6
		c0.7,0.5,1.3,0.8,1.8,1.2c-0.5,0.6-0.9,1.2-1.4,1.8c-0.5-0.4-1.3-0.7-1.4-1.2C787.5,1388.9,788.2,1388.3,788.6,1387.6z
		 M776.3,1550.1c-0.7-0.1-1.7-1.6-1.5-1.9c0.8-1.3,1.9-2.4,2.9-3.5c0.7,0.8,1.5,1.6,2,2.2C779.4,1549.5,778.3,1550.5,776.3,1550.1z
		 M779.1,1558.3c-1,1.9-2.7,2-4.5,1.1c-0.4-0.2-0.7-0.6-1.5-1.2c0.8-0.7,1.1-1.2,1.5-1.3c1.4-0.3,2.8-0.4,4.1-0.5
		C778.9,1556.5,779.4,1557.9,779.1,1558.3z M772.1,1516.1c3,1.6,5.7,3,9.5,5C774.2,1521.9,774.2,1521.9,772.1,1516.1z M785.9,1536.1
		c-1.9,0.6-3.8,1.3-6.2,2.1C781.6,1533.8,781.6,1533.8,785.9,1536.1z M783.3,1403c-1,0.9-1.8,1.9-2.9,2.5c-0.3,0.2-2-1.1-2-1.4
		c0.3-1.2,1-2.2,1.9-3.8C781.7,1401.5,782.5,1402.2,783.3,1403z M778.5,1394c0.9-1.2,2.1-2.1,3.1-3.2c0.4,0.3,0.8,0.6,1.2,0.8
		c-0.6,1.4-1.1,2.9-1.9,4.2c-0.2,0.3-1.5,0.3-1.9,0C778.6,1395.6,778.2,1394.4,778.5,1394z M758.5,1246.4c0.9,0.2,1.5,1.6,2.7,2.9
		c-1.5,1.4-2.7,2.4-3.8,3.5c-0.7-1.1-2-2.2-2-3.3C755.4,1247.8,756.3,1245.9,758.5,1246.4z M727.4,1250.4c0.8,0.1,1.5,0.7,2.7,1.3
		c-1,0.8-1.6,1.7-1.9,1.6c-0.8-0.3-1.4-1-2.1-1.6C726.5,1251.3,727,1250.4,727.4,1250.4z M714.6,1244.9c-3.6,5.7-3.9,5.6-11.4-0.4
		C707.7,1240,710.5,1245.6,714.6,1244.9z M681.7,1271.6c0.5,0.6,1,1.3,1.5,1.9c-0.5,0.4-1.1,0.8-1.9,1.3c-0.4-0.7-1.1-1.4-1-1.8
		C680.4,1272.4,681.2,1272,681.7,1271.6z M677.8,1263c0.9,0.6,1.8,1.1,3,1.9c-0.9,0.8-1.6,1.7-1.8,1.6c-0.8-0.4-1.6-1-2-1.8
		C676.9,1264.4,677.6,1263.6,677.8,1263z M598.3,1444.5c0.5,1.1,1,1.9,1.1,2.7c0,0.2-1.3,1-1.5,0.8c-0.6-0.5-1.1-1.3-1.4-2.1
		C596.4,1445.8,597.4,1445.2,598.3,1444.5z M601.1,1460.9c-1.3,0.6-2.2,1.3-2.4,1.1c-0.7-0.5-1.2-1.3-1.6-2.1
		c-0.1-0.2,0.7-1.1,0.7-1.1C598.6,1459.3,599.3,1459.8,601.1,1460.9z M584.1,1503c0.5-0.7,1.2-1.3,1.9-1.6c0.2-0.1,0.9,0.9,1.7,1.8
		c-1,0.6-1.7,1.2-2.5,1.3C584.9,1504.5,584,1503.2,584.1,1503z M579.1,1322.5c3.2,3,3.5,6.1,2.5,9.2c-3.3,0-6.1,0.2-9-0.1
		c-1-0.1-2.4-1.1-2.6-2c-0.2-0.7,1.2-2.6,1.8-2.6C575.1,1327.3,576.8,1324.6,579.1,1322.5z M570.5,1312.2c0.6,0.7,1.3,1.3,1.3,1.8
		c0,0.4-0.8,1.2-1.3,1.2c-0.5,0-1.3-0.8-1.3-1.2C569.2,1313.5,570,1312.9,570.5,1312.2z M569.3,1474.5c0-0.2,0.1-0.5,0.1-0.7
		c0.2-2.2,1.2-3.8,3.6-3.5c0.7,0.1,1.8,1.2,1.8,1.8c0.1,2.6-2,3-4,3.2c-0.2,0-0.5,0.1-0.7,0.1c1.1,0.8,2.1,1.6,4,2.9
		c-3.3,1.3-5.7,1.9-7.1-0.8C566.1,1475.8,567.8,1474.9,569.3,1474.5z M563.9,1499.9c0.1-0.5,0.9-0.8,1.3-1.2c0.4,0.5,1.1,1,1.1,1.4
		c0,0.5-0.8,0.9-1.4,1.6C564.4,1500.9,563.8,1500.3,563.9,1499.9z M564.6,1531.3c-2.1,1.2-3.4,1.9-4.8,2.7c-0.6-1-1.1-2-1.7-3
		c1.2-0.7,2.3-1.5,3.6-1.8C562.3,1529,563.1,1530.1,564.6,1531.3z M553.4,1354.2c1.1-0.4,2.5-0.2,3.7-0.3c0.6-0.8,1-2,1.7-2.2
		c2-0.6,3.4,0.5,4,2.3c0.2,0.7-0.6,2.5-0.8,2.5c-1.3-0.2-2.6-0.7-3.9-1.1c-0.1,2.8-1.7,4.3-4.4,3.6c-1.1-0.3-2-1.7-2.9-2.7
		C551.7,1355.6,552.4,1354.6,553.4,1354.2z M556.8,1431.8c-1.2,0.9-2.1,1.6-3,2.2c-0.5-0.7-1.5-1.7-1.3-2.2c0.3-0.9,1.4-1.7,2.1-2.5
		C555.2,1430,555.8,1430.7,556.8,1431.8z M549.5,1491.5c0.5,0.5,1.4,0.9,1.4,1.5c0.1,0.8-0.4,1.7-0.9,3.6c-1.1-1.6-2-2.3-2-2.9
		C548.1,1492.9,549,1492.2,549.5,1491.5z M345.8,1458.2c0.6,0.7,1.4,1.2,1.3,1.6c-0.1,0.5-0.8,1-1.3,1.2c-0.2,0.1-1.1-0.6-1-0.7
		C344.9,1459.7,345.3,1459.1,345.8,1458.2z M339.4,1511.7c0.1-0.6,1.5-1.7,1.9-1.5c1,0.3,1.7,1.3,3,2.3c-1.2,0.9-1.9,1.9-2.6,1.9
		C339.9,1514.6,339.1,1513.3,339.4,1511.7z M336.2,1493.4c0.6,0.6,1.9,1.5,1.8,1.8c-0.4,1-1.3,1.8-2.1,2.8c-1-0.7-1.5-1-2.1-1.4
		C334.6,1495.4,335.4,1494.4,336.2,1493.4z M332.1,1506.1c0.2-0.7,1.4-1.5,2-1.5c0.6,0.1,1.6,1.2,1.6,1.9c0,0.6-1.1,1.2-2.2,2.3
		C332.8,1507.6,331.9,1506.7,332.1,1506.1z M324.7,1544.8c0.2-0.6,0.9-1.2,1.5-1.3c0.5-0.1,1.1,0.7,2.2,1.4c-1.2,0.6-2,1.1-2.7,1.3
		C325.4,1546.3,324.5,1545.1,324.7,1544.8z M405,1777.7c-1.1,1-2.2,2-4,3.6c-0.3-4.3,1.3-4.8,3.4-4.7
		C404.6,1776.6,405.1,1777.6,405,1777.7z M425.3,1730.7c-0.2-0.6-0.5-1.2-0.4-1.8c0-0.2,0.9-0.7,1-0.6c0.5,0.3,0.8,0.9,1.5,1.7
		C426.5,1730.3,425.9,1730.5,425.3,1730.7z M428.7,1647.8c-0.7,0.6-1.9,0.6-2.9,0.8c0.1-0.8,0-1.9,0.4-2.5c0.5-0.7,1.4-1,2.2-1.5
		c0.4,0.3,0.8,0.5,1.1,0.8C429.3,1646.3,429.3,1647.4,428.7,1647.8z M429.7,1678.9c-0.7,0.7-1.3,1.6-1.5,1.5c-0.7-0.3-1.3-1-1.9-1.5
		c0.5-0.4,1-1.1,1.5-1.2C428.3,1677.8,428.9,1678.5,429.7,1678.9z M425.9,1699.5c5-0.5,5-0.5,5.1,4.7
		C428.1,1703.8,426.7,1702.2,425.9,1699.5z M442.2,1637c-0.5-0.5-1.2-1-1.3-1.5c0-0.5,0.7-1,1.4-1.8c0.5,0.8,1.3,1.4,1.2,1.8
		C443.4,1636.1,442.7,1636.5,442.2,1637z M452.5,1831.8c-0.7-0.1-1.3-1-1.9-1.6c0.6-0.5,1.2-1.4,1.9-1.5c0.7-0.1,1.4,0.7,2.8,1.6
		C453.9,1831.1,453.1,1831.9,452.5,1831.8z M457,1704.2c-1-0.4-1.7-1.4-2.6-2.1c0.7-0.5,1.4-1.6,2-1.5c1,0.1,1.9,1,3.6,2
		C458.5,1703.5,457.5,1704.4,457,1704.2z M468.1,1768c0.7-0.5,1.4-1.2,2.1-1.4c0.6-0.1,1.4,0.4,3.3,1.1c-2.7,1.2-3.4,1.8-4.2,1.8
		C468.9,1769.6,468.5,1768.6,468.1,1768z M470.9,1855.6c-0.3-0.6-1-1.5-0.8-1.7c0.6-0.7,1.4-1.3,2.2-1.7c0.3-0.1,0.9,0.7,2,1.6
		C472.8,1854.5,471.8,1855.1,470.9,1855.6z M473.5,1804.4c2.5,3,4.2,5,6.2,7.4c-0.8,1-1.8,2.3-3.1,4
		C474.3,1812.3,471.5,1809.7,473.5,1804.4z M478.1,1860.3c-0.9-1.5-1.6-2.1-1.5-2.5c0.1-0.5,0.9-1.1,1.4-1.1c0.4,0,1.1,0.8,1.1,1.3
		C479.1,1858.6,478.6,1859.2,478.1,1860.3z M481.6,1850.3c-0.7-0.4-1.5-0.7-2-1.2c-0.2-0.2,0.5-1.1,0.9-1.9c0.7,0.5,1.5,0.8,1.6,1.3
		C482.3,1849,481.8,1849.7,481.6,1850.3z M481.6,1815.8c-0.1-0.4,0.8-1.5,1.2-1.5c0.8,0,1.5,0.7,2.8,1.4c-1.2,1-1.8,1.6-2.5,2.2
		C482.5,1817.2,481.8,1816.6,481.6,1815.8z M485.2,1867.2c-0.9-0.7-2.4-1.4-2.4-2.2c-0.1-1.1,1-2.3,1.9-4.2c1.3,1.4,2.6,2.3,2.5,3
		C487,1865,485.9,1866.1,485.2,1867.2z M490.8,1801.6c0.3-0.7,1-1.3,1.5-1.9c0.5,0.4,1,0.9,1.9,1.7c-0.9,0.7-1.5,1.4-2.2,1.6
		C491.8,1803,490.7,1801.9,490.8,1801.6z M495.1,1823.7c0.9,0.3,1.6,1.4,3.4,3.3c-1.4,0.6-2.2,1.2-3.2,1.4c-1.3,0.3-2.9-1.7-2.3-3
		C493.4,1824.6,494.7,1823.5,495.1,1823.7z M498.4,1872.6c-0.8,1.7-2.3,1.3-3.5,0c-1.1-1.2-2.2-2.4-3.4-3.7c0.1-0.5,0.1-1,0.2-1.5
		c2,0.4,4.2,0.5,5.9,1.4C498.5,1869.3,498.9,1871.6,498.4,1872.6z M501.1,1797.5c-0.5,0-1-1.3-1.5-2.1c1.2-0.5,2.3-1.3,3.5-1.4
		c0.5-0.1,1.2,1,2.6,2.2C503.6,1796.9,502.3,1797.5,501.1,1797.5z M569.7,1888.7c-0.6-0.8-1.3-1.4-1.2-1.8c0.1-0.5,0.9-1.1,1.4-1.1
		c0.5,0,1.1,0.9,1.2,1.4C571,1887.6,570.3,1888,569.7,1888.7z M612.4,1922.8c-0.5-0.7-1.3-1.3-1.5-2.1c-0.1-0.4,0.8-1,1.2-1.5
		c0.6,0.5,1.2,1.1,2,1.8C613.3,1921.8,612.8,1922.3,612.4,1922.8z M664,2040.4c-0.5-0.7-1.3-1.3-1.2-1.7c0.1-0.5,0.8-1.2,1.4-1.3
		c0.3-0.1,1.2,0.8,1.2,1.2C665.3,2039.1,664.7,2039.6,664,2040.4z M667.8,2098.9c-0.6-0.1-1.2-1.2-1.4-2c-0.1-0.3,0.9-1.3,1.4-1.2
		c0.7,0.1,1.4,0.8,2.7,1.6C669.2,2098.2,668.4,2099.1,667.8,2098.9z M666.7,1819c-1.5,3.9-3.6,7.7-5.8,11.7c-2,3.6-4,7.4-5.8,11.4
		c-1.9,4.2-3.1,8.5-4.2,12.6c-1.1,3.9-2.1,7.5-3.6,10.7c-1.1,2.3-2.6,4.7-4.2,7.2c-0.8,1.3-1.7,2.6-2.5,4c-1.3,0.6-2.7,1.5-4,3
		c-1.5,1.7-2.4,3.7-3,5.4c-0.2,0-0.5,0-0.7,0.1c-1.4,0.1-2.9,0.2-4.5,0.4c-1.5-1.2-3.5-2.6-6-3.6c-0.1-0.1-0.3-0.1-0.4-0.2
		c-3-1.1-5.9-1.2-8.2-1.2c-1-1.2-2.4-2.4-4.3-3.1c-0.3-0.1-0.6-0.2-0.8-0.3c-6.5-2.3-13-1.5-18.1-0.9c-2.1,0.3-4.2,0.5-5.9,0.5
		l-0.5,0c-1.6,0-4.2,0-7.3,1.3c-0.4,0.2-0.9,0.3-1.3,0.4c-1.2-0.3-2.4-0.7-3.6-1.1c-0.5-0.1-0.9-0.3-1.4-0.4c0,0,0,0,0,0
		c0-0.2,0-0.4,0.1-0.6c0.2-1.6,0.3-3.2,0.2-4.8l-0.8-10.2l-10.2,1.1c-3.2,0.4-6,1.7-8,2.7c-0.4,0.2-1,0.5-1.4,0.7
		c-1.2,0.1-2.3,0.3-3.3,0.5c-0.9,0.2-2.3,0.4-2.9,0.4l-0.1,0c-2.2-0.8-4.7-3-6.7-6c-0.1-0.2-0.1-0.5-0.2-0.7
		c-0.3-1.5-0.8-3.7-2.1-5.9c-3.6-6.3-3.6-10.8-2.8-13.9c1.2-0.6,2.6-1.4,3.9-2.7c2-2,4.3-3.9,6.7-5.9c2.2-1.8,4.4-3.7,6.7-5.8
		c4.8-4.5,8.2-9.6,11.6-14.6c1.2-1.8,2.3-3.4,3.4-5c1.5-2,2.3-4.1,3-5.8c0.2-0.5,0.5-1.1,0.7-1.5c0.2-0.1,0.5-0.3,0.8-0.5
		c1.3-0.8,3.2-1.9,5.2-3.7l4.8-4.5l-2.2-6c0.1-0.2,0.2-0.7,0.8-1.6c6.1-10.6,10.5-20.5,13.7-30.2c0.8-2.4,2.6-4.8,4.8-7.5
		c1.2-1.5,2.4-3.1,3.6-4.8c3.5-5.1,4.3-11.3,4.8-15.4c1.4-10.8-6.9-21-15.9-25.5c-1.3-0.6-2.5-1.2-3.6-1.6c-9-3.2-17.4-0.7-23.8,7
		c-2.5,3-5.6,7.1-7.3,12.4c-0.1,0.3-0.2,0.6-0.3,0.9c-4.2,1.8-9.1,5.3-11.6,10.4c-3.3,6.6-6,11.6-10.4,14.4c-1.8,1.2-3.1,2.5-4,3.4
		c-0.2,0.2-0.5,0.5-0.6,0.6c-4.8,4.2-11.2,6.9-18,9.7c-2.9,1.2-5.9,2.5-8.8,3.9c-3.7,1.8-6.4,4.3-8.9,6.5c-1.2,1.1-2.5,2.3-3.5,2.9
		c-0.4,0-0.8-0.1-1.1-0.1c-0.5-0.1-0.9-0.1-1.5-0.2c-0.6-3-1.5-6-3.1-9c-2.1-4-2.8-8.7-3.7-14.1c-0.3-1.6-0.5-3.2-0.8-4.8
		c-1.4-7.6-5.9-13-10.7-17.2c0,0,0-0.1,0-0.1c-0.2-1.6-0.7-2.9-1-3.7c0,0,0-0.1,0-0.1c-0.4-3.8-0.6-7.7-0.7-11.8
		c-0.2-4.3-0.3-8.7-0.9-13.2c-0.3-3.1-1.5-5.7-2.4-7.5c-0.3-0.6-0.6-1.3-0.7-1.7c-1-8.6-2.1-17.8-3.3-29.8c-0.3-2.7-0.2-5.7,0-8.9
		c0.1-2.7,0.2-5.5,0.1-8.5c0-0.7,0-1.4,0-2.1c0-3.7,0-8.7-2.6-13.4c-2.7-5-7.7-9.2-13.5-11.3c-0.4-0.1-0.7-0.3-1.1-0.4
		c-7.9-2.4-14.2,1.1-18.7,10.4c-0.3,0.3-1,1.1-1.5,1.6c-1.8,1.8-4.3,4.4-5.7,8.1c-1.1,2.9-2,5.8-3,8.5c-0.4,1.3-0.9,2.6-1.3,3.8
		c-0.7,0.7-1.4,1.5-2,2.6c-2.7,4.8-2.6,9.9-2.5,13.6c0,1.4,0.1,3.2-0.1,3.9c-0.2,0.8-0.7,1.9-1.3,3.1c-1.3,2.9-3,6.6-3.1,11.1
		c-0.1,2.8,0.6,5.2,1,6.9c0.1,0.6,0.3,1.2,0.4,1.5c0.4,2.6,1.4,4.7,2.1,6.3c0.1,0.3,0.3,0.7,0.5,1c0.1,1.8,0.2,3.5,0.3,5.4
		c0.3,6.4,0.7,13.1,2.9,19.9c0.7,2.2,1.6,4.2,2.4,6.2c0.9,2.2,1.8,4.2,2.2,6c1.2,4.8,3.3,9,5.2,12.6c1,2,2,3.9,2.7,5.6
		c0.9,2.3,1.6,5.1,2.2,8c0.4,1.7,0.8,3.4,1.2,5.2c-0.4,1.1-0.8,2.3-0.8,3.8c0,1.2-0.1,2.4-0.2,3.6c-2.5-4.8-7.7-6.8-9.9-7.6
		c-0.3-0.1-0.6-0.2-0.9-0.3c-0.7-0.3-1.4-0.6-2.1-0.8c-1.1-0.4-2.1-0.8-2.9-1.2c-1.8-1-3.8-2.4-5.8-3.8c-1.1-0.8-2.3-1.6-3.5-2.5
		c-1.7-1.2-3.5-1.8-4.9-2.3c0,0-0.1,0-0.2-0.1c-2.6-4.1-5.6-8-9.3-12.1c-1.4-1.6-2.6-4.1-4-6.8c-1.8-3.7-3.9-7.9-7.3-11.6
		c-2.8-3-5.2-6.4-7.7-10c-1-1.5-2.1-2.9-3.2-4.5c-2.4-3.3-3.5-5.9-3.7-9.3c-0.2-2.8-1.3-4.9-2.5-6.4c0.4-4.2-1-7.5-4.2-9.8
		c-3.8-2.8-6.2-5-8.3-7.8l-4.4-5.9l-3.1,1.1l-3.2-1.5c-0.7-0.3-1.4-0.6-2.2-0.9c-3.1-1.1-6-1.5-8.6-1.8c-0.6-0.1-1.2-0.1-1.7-0.2
		c-0.5-0.9-0.8-1.8-0.7-2.3c0.2-1.3,0.4-2.5,0.7-3.7c0.3,0,0.7,0,1,0l12.5-0.7l-3.5-12c-0.7-2.2-0.4-4.6,0.4-7.8
		c0.1-0.4,0.8-1.6,1.2-2.4c1.2-2.1,2.6-4.8,3.2-8.2c0.4-1.9,0.2-4.2-0.8-6.3c2.4-3.8,2.5-8,2.6-10.4l0-0.2c0-1.3,0.8-3.1,1.7-5.1
		c0.7-1.6,1-3.3,0.8-5.1c1.2-1.5,2.6-3.5,3.2-6.1l1.9-7.2l-6.3-3.8c-0.3-0.2-1-0.9-1.4-1.3c-0.5-0.5-0.9-0.9-1.4-1.2
		c-1.6-1.4-3.3-2.1-4.4-2.6c-0.3-0.3-0.6-0.7-0.9-1c-1.5-1.7-3.3-3.7-5.4-5.4c-0.6-0.5-0.8-0.8-0.9-0.9c0-0.1,0-0.2,0-0.3
		c0.2-2.7-0.4-5.1-1-7c0.5-0.3,1.1-0.5,1.6-0.8c2.2-1.1,3.6-2.7,4.5-4.2c0.5-0.1,0.9-0.2,1.4-0.3c2.4-0.6,7.4-2.7,7.9-10.2
		c0.4-0.3,0.7-0.6,1.1-0.9c2.1-1.6,4.4-3.5,6.5-5.9c4.4-5,6-10.2,6.9-15.2c1.3-1.1,2.6-2.7,3.3-4.8c2.8-1.3,5-3.2,6.5-5.8
		c0.1,0,0.2,0,0.3-0.1l6.7,2l3.1-8.3c0.1-0.1,0.1-0.2,0.2-0.3c0.6-1.1,1.6-2.7,2.1-4.7c0-0.1,0.2-0.5,0.3-0.8c0.3-0.9,0.7-2.1,1-3.6
		c0.4-2.1,0.4-4.1,0.4-5.7c0-0.8,0-1.9,0.1-2.4c0.6-1.1,1.6-2.4,2.6-3.8c1.6-2.1,3.5-4.5,4.9-7.5c4-2.3,5.5-6,6.2-8.8
		c1.4-0.2,3.1-0.4,4.7-1c3.8-1.3,7.6-2.9,11.2-4.5c1.8-0.8,3.6-1.6,5.4-2.3l11.8-4.8l-6.3-8.5c6.3-3.9,12-8.3,17.6-12.6
		c1.7-1.4,3.5-2.8,5.3-4.1c0.2,0,0.4,0,0.6,0c1.9,0,4.5,0.1,7.2-0.8c0.1,0,0.2,0,0.3,0l0.1,0.2l4.5,0.8c3,0.5,6-0.4,8.2-2.3
		c2.3-0.1,4.8,0.1,7.4,0.4c3.1,0.3,6.4,0.5,9.8,0.4c2.2-0.1,4.7,0.3,7.5,0.7c1.1,0.2,2.2,0.3,3.4,0.5c3.7,0.5,6.6-0.7,8.3-1.3
		c0.2-0.1,0.4-0.1,0.5-0.2c0.8-0.2,1.7-0.3,2.6-0.5c4.3-0.7,9.7-1.7,14.4-5.3c2.8-2.2,4-5,4.6-6.7c1.8-1.1,4.3-1.5,9.3-1.5
		c0.7,0,1.4,0,2.1,0c0.7,4.2,1.9,8,3.1,11.7l0.1,0.3c0.5,1.5,0.8,3.2,1.2,5.1c0.8,3.8,1.6,8,3.9,12.3c1.2,2.3,2.5,4.3,3.8,6.3
		c0.8,1.3,1.6,2.5,2.3,3.7c0.1,0.1,0.1,0.3,0.1,0.5c-0.1,3-0.5,6.1-1,9.4c-0.8,6.2-1.7,12.7-0.9,19.5c0.2,2.1,0.4,3.6,0.3,5.3
		c-0.4,10.9,0.4,21.7,1.2,32.1c0.4,5.1,0.8,10.4,1.1,15.5c0.2,5.1,2.1,9.1,4.1,12.1c-0.2,1.1-0.2,2.4,0,3.9
		c1.1,7.7,7.8,10.1,10,10.9c0.2,0.1,0.5,0.2,0.7,0.3c0.2,0.1,0.3,0.1,0.4,0.2c0.4,0.2,0.9,0.4,1.5,0.6c4,1.4,7.2,0.3,8.8-0.5
		c1.9-1,4.4-3,5.6-7c0.2-0.5,0.3-1.1,0.4-1.6c0.1-0.3,0.2-0.8,0.3-1c3.7-4.7,8-11.2,10.1-19.4c2-7.6,3.1-15.1,4.2-22.5l0-0.1
		c0.2-1.3,0.4-2.6,0.6-3.9c1-6.2,2-12.5,2.5-19c0.4-5,1.8-10.1,3.3-15.5c1.2-4.6,2.5-9.4,3.3-14.4c0.8-5.4,1.6-10.3,2.5-15
		c0.7-4.2,1.1-8.3,1.4-12.3c0.6-6.9,1.1-13.5,3.5-18.9c1.4-3.2,3.8-6.4,6.3-9.8c2.9-3.9,5.8-7.9,8.1-12.7c1.8-3.8,1.7-7.5,1.6-10.1
		c0-0.6,0-1.6,0-2c1.5-4,3.7-8,5.9-12.1c2.5-4.8,5.2-9.7,7.2-15.1c1.6-4.3,1.9-8.5,2.2-12.2c0-0.3,0-0.6,0.1-0.9
		c1.9-5.3,2.5-10.6,3.1-15.4c0.3-2.3,0.5-4.4,0.9-6.4c0.3-0.2,0.6-0.3,0.9-0.5c1.9-1.2,3.1-2.6,3.9-4c0.2-0.1,0.5-0.1,0.7-0.2
		c3.7-0.9,7.5-1.9,11.5-3.6c3.4-1.4,6.1-3.4,8.5-5.2c1.6-1.2,3.2-2.3,4.5-2.9c0.4-0.2,1.2-0.4,2-0.6c1-0.3,2.1-0.6,3.2-1.1
		c1,0.9,2.3,1.8,4.1,2.4c2,0.7,4.1,0.9,6.2,0.5c7.6-1.5,14.3-4.4,20.7-7.3c1.1-0.5,2.2-1,3.3-1.4c2-0.8,3.8-1.8,5.8-3.2
		c0.5-0.3,1.9-0.8,2.9-1.1c2.2-0.7,4.9-1.6,7.5-3.4c5.9-3.9,6-10.1,6.1-12.8c0-0.3,0-0.6,0-0.8c0.2-0.6,0.6-1.4,1.1-2.3
		c2.6,0.7,4.9,0.3,6.6-0.1c0.2,0.1,0.3,0.1,0.5,0.2c1.3,0.6,2.6,1.3,4,1.9c0.5,0.2,0.9,0.4,1.4,0.6c4.9,1.7,8.6,0.3,10.9-0.9
		c1.5-0.1,3.8-0.5,6.1-2c1.5-1,2.7-2,3.6-2.8c0.3-0.2,0.6-0.6,0.8-0.7c0.4-0.2,0.8-0.5,1.3-0.7c0.2-0.1,0.5-0.3,0.8-0.5
		c0.5,0.2,1,0.4,1.5,0.6c3.1,1.1,5.7,1.2,7.9,0.8c-3.1,7.6-3.4,15.5-3.6,22.6c-0.1,1.6-0.1,3-0.2,4.5c-0.2,4.4,0,8.5,0.3,12.6
		c0.2,3.1,0.4,6,0.3,8.8c0,1.8-0.3,3.8-0.5,5.9c-0.3,2.8-0.6,5.6-0.6,8.7c0,9.5,0,19.6-1.4,29.4c-0.6,4.2-1.6,8.5-2.7,13
		c-1.1,4.7-2.3,9.6-3,14.7c-0.7,5-1.5,10.1-2.3,15c-0.7,4.4-1.5,8.8-2.1,13.3c-0.8,5.3-1,10.5-1.1,15.5c-0.2,4.7-0.3,9.1-0.9,13.3
		c-0.5,3.5-1.1,7-1.8,10.7c-0.6,3.2-1.2,6.6-1.7,9.9c-1,6.8-2.5,13.5-4,20.6c-1.2,5.9-2.5,11.9-3.6,18c-1,6.1-1.2,12.1-1.4,17.9
		c0,0.1,0,0.3,0,0.4c0.8,0.2,1.6,0.6,2,1.1c1.3,1.7,0.3,4.2-2.3,6.7c-0.2,3-0.5,5.9-1.1,8.6c-1,4.8-2.4,9.6-3.9,14.6
		c-1.4,4.7-2.8,9.6-3.9,14.6l-1,4.3c-2,8.8-4,17.9-5.8,27l-0.3,1.3c-2.4,12-5,24.4-8.2,36.2c-1.3,4.8-2.3,9.7-3.3,14.3
		c-0.8,4.1-1.6,8-2.6,11.8c-0.7,2.6-2.3,5.5-4,8.6c-1.9,3.5-4.1,7.4-5.5,11.8c-1.3,4.3-2.1,8.6-2.9,12.7c-0.8,4.2-1.5,8.1-2.7,11.7
		c-1.9,5.8-4.1,11.7-6.1,17.4c-1.7,4.7-3.5,9.6-5.1,14.5c-0.9,2.5-1.5,4.9-2,7.2c-0.6,2.3-1.1,4.5-1.8,6.3c-2,5.2-4.3,10.3-6.8,15.6
		c-2.5,5.4-5,10.9-7.2,16.7c-2.1,5.6-4,11.2-5.7,16.7C670.6,1808.2,668.8,1813.7,666.7,1819z M532.7,1800.4
		c-0.1-0.2,1.7-1.7,1.8-1.6c1.1,0.8,2,1.9,3.5,3.3c-1.4,0.7-2.6,1.6-2.9,1.3C534.1,1802.7,533.3,1801.6,532.7,1800.4z M767.2,1431.6
		c-0.1-0.3,1-1.3,1.2-1.2c0.7,0.3,1.2,0.9,2.1,1.6c-0.9,0.7-1.4,1.1-1.9,1.5C768.1,1432.9,767.4,1432.3,767.2,1431.6z M767.7,1503.2
		c-0.1,1.1,0.1,2.4-0.5,3.2c-0.6,0.8-1.9,1-4,2.1c0.7-2.3,0.7-3.7,1.5-4.4C765.3,1503.4,766.7,1503.5,767.7,1503.2z M733.9,1771.3
		c-1.5,1-2.2,1.8-3,1.8c-2.2,0.2-4.4-1.8-3.7-3.5c0.4-0.9,2.1-2.1,2.7-1.9C731.2,1768.4,732.3,1769.7,733.9,1771.3z M725.9,1717.9
		c0,0.5-0.5,1.3-1,1.4c-0.4,0.1-1.3-0.5-1.4-0.9c-0.1-0.5,0.5-1.1,0.9-1.9C725.1,1717.1,725.9,1717.5,725.9,1717.9z M677.9,1855.4
		c0.1,0.5-1,1.3-1.9,2.4c-0.9-1.4-1.8-2.3-2-3.3c-0.1-0.4,1.2-1.1,1.9-1.7C676.6,1853.7,677.6,1854.5,677.9,1855.4z M672.9,2011.2
		c-0.4-4.9,3-6.5,5.8-8.4C679.3,2007.4,677.4,2009.9,672.9,2011.2z M735.9,1961c-0.5-0.2-1-1-0.9-1.5c0.1-0.4,1-1,1.4-0.9
		c0.4,0.1,0.8,0.9,1.3,1.5C737,1960.5,736.3,1961.1,735.9,1961z M792.6,1837.1c-0.5-0.5-1.4-1-1.3-1.4c0.1-0.8,0.8-1.5,1.4-2.6
		c0.9,1,1.8,1.7,1.6,2C793.9,1835.9,793.2,1836.4,792.6,1837.1z M806.8,1857.2c-0.1,0-0.9-1.5-0.7-1.6c0.8-0.7,1.8-1.4,2.8-1.8
		c0.3-0.1,1,0.7,2,1.6C809.2,1856.3,808,1856.8,806.8,1857.2z M824.7,1800.7c-0.3,0.1-1.3-1.2-1.2-1.4c0.3-0.7,1-1.5,1.7-1.8
		c0.5-0.2,1.3,0.5,2.8,1.1C826.1,1799.8,825.4,1800.5,824.7,1800.7z M836.4,1809.2c-1.1-1.2-1.7-1.9-2.3-2.6c1.2-1,2.4-2.2,3.7-3
		c0.2-0.2,1.3,1,2,1.5C838.8,1806.4,837.8,1807.6,836.4,1809.2z M849.3,1813.6c-0.8-1.2-1.5-2-1.9-2.9c-0.1-0.1,1.3-1.2,1.4-1.1
		c0.8,0.6,1.5,1.4,2.1,2.3C851,1812,850.1,1812.7,849.3,1813.6z M849.4,1801.5c-0.5-0.1-0.9-0.9-1.3-1.4c0.5-0.4,1-1.2,1.5-1.1
		c0.5,0,1,0.8,1.8,1.5C850.5,1801,849.9,1801.6,849.4,1801.5z M876.6,1776.8c-0.3,0.2-1.2-0.5-1.8-0.7c0.7-1.1,1.2-2.4,2.1-3.4
		c0.3-0.3,1.6,0.4,3.4,0.9C878.6,1775.1,877.7,1776.1,876.6,1776.8z M880.6,1720.8c0.5-1.2,0.6-2.8,1.5-3.3c1-0.6,2.5-0.1,5.1-0.1
		c-1.7,1.7-2.4,2.8-3.4,3.2C882.8,1720.9,881.6,1720.7,880.6,1720.8z M884.5,1738.2c-0.1-0.3,1.1-1.5,1.2-1.4c1.1,0.7,2.2,1.5,3,2.5
		c0.2,0.2-0.9,1.4-1.8,2.9C885.8,1740.4,885,1739.4,884.5,1738.2z M888.9,1769.4c-1-1.2-2.1-2.3-2-2.5c0.7-1.1,1.7-2.1,2.7-2.8
		c0.1-0.1,1.9,1.4,1.8,1.6C890.9,1766.9,890,1767.9,888.9,1769.4z M945.8,1457c-1.3-3.6,0.3-4.5,3.6-4
		C948.3,1454.2,947.3,1455.3,945.8,1457z M954.5,1592.1c0.3-2.5,0.9-4.8,4.3-5.7C959,1589.9,957.5,1591.5,954.5,1592.1z
		 M974.4,1602.4c-0.6-0.6-1.2-1.3-1.5-2.1c-0.1-0.2,0.9-0.8,1.8-1.5c0.5,1.1,1,1.9,1.2,2.7C975.9,1601.7,974.6,1602.5,974.4,1602.4z
		 M1003,1662.2c-0.6,0.5-1.8,0.2-2.7,0.1c-0.3,0-0.6-0.8-0.6-1.2c-0.1-2.4,2.9-4.6,5.2-3.8c0.4,0.1,0.7,0.7,1.4,1.4
		C1005.2,1659.8,1004.2,1661.2,1003,1662.2z M1029.1,1584.6c-0.7-0.2-1.4-1.3-1.4-2c0-0.6,1.2-1.5,1.8-1.5c0.7,0.1,1.3,1.1,2.4,2.2
		C1030.6,1584,1029.7,1584.8,1029.1,1584.6z M1097,1385.8c-1.4-0.8-2.7-2.8-3-4.4c-0.2-1,1.8-2.3,2.4-3c3.2,0.1,5.7,2.3,5.6,4
		C1101.8,1384.1,1098.5,1386.7,1097,1385.8z M1092.6,1367.6c-0.2-0.6-0.6-1.2-0.6-1.8c0-0.2,0.9-0.8,1.1-0.7
		c0.5,0.3,0.9,0.9,1.7,1.7C1093.7,1367.1,1093.2,1367.4,1092.6,1367.6z M1108.9,1348c-0.4-0.3-1.4-1-1.3-1.2
		c0.7-1.6,1.6-3.2,2.4-4.8c0.7,0.5,1.8,1,1.9,1.6C1112.3,1345.8,1111.4,1347.4,1108.9,1348z M1122.1,1295.9
		c-1.8-1.1-3.5-1.5-3.9-2.5c-0.9-2.8,0.5-4.6,4.5-5.9C1122.5,1290.8,1122.4,1292.9,1122.1,1295.9z M1124.3,1229.6
		c-0.5,3.3-1.3,6.6-2.2,10.1c-0.6,2.6-1.2,5.2-1.8,7.9c-1,1.1-1.9,2.6-2.3,4.5c-1.8,7.5-2.1,14.9-2.4,22c-0.2,3.4-0.3,6.6-0.6,9.7
		c-0.2,2.2-0.2,4.4-0.1,6.3c0,0.6,0,1.2,0,1.8c-0.6,0.8-1.1,1.5-1.6,2.2c-0.8,1.1-1.6,2.3-2.1,2.8c-1.6,1.5-3.8,2.8-6.1,4.3
		c-2.7,1.7-5.8,3.6-8.6,6.1c-1.5,1.3-3.2,2.7-4.9,4c-2.5,2-5.1,4.1-7.6,6.4c-1.8,1.8-3.6,3.5-5.4,5.3c-2.1,2.1-4.2,4.2-6.3,6.1
		c-5.1,4.7-9.6,9.9-13.8,14.9c-2.3,2.7-18.3,17.3-19,18.8l-0.3,0.6c-3.1,6.1-7.4,14.5-3.4,24.2c4.3,10.2,13,16.3,20,21.2
		c5.6,3.9,11.9,6.7,19.3,8.5c3.7,0.9,7.7,1.6,12.6,2.3c1,0.3,2.7,1.4,5.2,3.2c0,0,0,0,0,0c-2.6,4.5-3.2,9.4-3.6,13.3
		c-0.2,1.7-0.4,3.3-0.7,4.5c-0.6,2.4-0.5,4.5-0.5,6.1c0,0.2,0,0.4,0,0.6c-0.7,1.8-1.7,3.7-2.7,5.8c-1.2,2.3-2.3,4.8-3.4,7.4
		c-1.7,4.4-3.5,8.9-5.2,13.3c-1.3,3.2-2.5,6.4-3.8,9.6c-0.9,2.2-2.1,4.6-3.5,7c-1.4,2.7-2.9,5.4-4.2,8.5c-1.2,3-2.1,5.9-2.8,8.7
		c-0.7,2.4-1.3,4.6-2.1,6.5c-2.1,5.1-4.4,10.4-7.1,15.1c-1.6,2.7-3.1,5.5-4.5,8.2c-0.8,1.5-1.7,3.1-2.5,4.6c-0.6,1-1.1,2-1.6,2.9
		c-0.2,0.3-0.3,0.6-0.5,0.9c0.3,0.4,0.5,0.7,0.7,1.1c-0.7,0.5-1.4,0.9-2.1,1.4c0,0,0,0,0,0c0,0.1-0.1,0.1-0.1,0.2
		c-6.1,9.9-11.2,20.3-15.6,29.2c-0.7,1.4-2,3-3.3,4.8c-1.9,2.5-4.1,5.3-5.7,8.8c-1.6,3.5-3,7.1-4.4,10.5c-0.2,0.4-0.3,0.8-0.5,1.3
		c-3.6-8-7.5-15.9-11.2-23.6c-2-4-4-8.2-5.9-12.3c-3.9-8.1-5.2-17.5-6.6-27.5c-0.2-1.1-0.3-2.2-0.5-3.3c-0.8-5.5-1.8-11-2.7-16.4
		c-1-5.9-2.1-12-2.9-18c-0.1-0.9,0-2.2,0-3.6c0.1-2.3,0.3-5.2-0.3-8.3c-0.5-2.8-1.7-5.1-2.6-6.7c-0.2-0.3-0.4-0.8-0.6-1.1
		c-1-6.8-2.8-13.1-4.6-19.1c-0.3-1-0.6-2-0.9-3c0.3-1.4,0.7-3.5,0.3-6c-0.9-5.5-3.5-9.9-5.6-13.5c-0.6-1.1-1.2-2.1-1.7-3
		c-0.4-0.7-0.7-1.4-1-2c-2.5-4.9-5.6-11-11.8-14.7c-1.1-0.7-2.3-1.1-3.6-1.5c-2.4-0.6-4.7-0.5-6.3-0.4c-0.3,0-0.6,0-0.9,0
		c-7.2-1.3-11.7,3.5-13.5,5.3c-0.3,0.3-0.6,0.6-0.7,0.8c-2.5,2.2-4.5,4.4-5.9,8.3c-0.2,0.5-0.7,1.5-1.2,2.3
		c-1.4,2.4-3.3,5.8-3.7,10.1c-0.3,2.8-0.8,5.6-1.3,8.6c-0.2,1.3-0.5,2.7-0.7,4c0.1,0,0.1,0,0.2,0c0.7,0.1,1.4,0.7,2.8,1.5
		c-1.4,0.9-2.1,1.8-2.8,1.8c-0.2,0-0.4-0.2-0.6-0.4c-0.2,1.5-0.4,3.1-0.5,4.6c-0.5,6.5,0.3,12.6,1.1,18.4c0.4,2.9,0.7,5.5,0.9,8.2
		c0.3,4.5,0.5,8.8,0.5,12.7c0,2,0,4,0,5.9c0,12.4,0,25.2,2,38c0.4,2.8,1,5.6,1.5,8.3c1,5.1,1.9,9.9,2.1,14.4c0,0.7,0,1.6-0.1,2.6
		c-0.1,2.8-0.3,6.2,0.8,10c2.8,9.3,7.2,17.6,11.4,25.6c2,3.7,3.8,7.1,5.5,10.7c0.6,1.3,0.7,4.1,0.7,6.8c0,3,0,6.3,0.8,9.8
		c0.3,1.5,0.8,2.7,1.3,3.7c-0.3,0.9-0.7,1.9-1,2.9c-0.9,2.6-1.8,5.2-2.6,8c-1,3.7-2.1,7.7-2.6,11.8c-0.6,4,0.3,7.5,0.9,10.3
		c0.2,0.8,0.4,1.8,0.5,2.5c-0.2,0.3-0.5,0.8-1.1,1.5c-0.2,0.2-0.6,0.4-0.9,0.6c-2.1,1.3-26.8,10.4-27.9,11.5
		c-1.2,1.2-2.2,2.5-3.1,3.6c-0.6,0.7-1.5,1.8-1.9,2.2c-9,3.8-19.2,8.8-25.7,19.2c-1.5,2.5-2,5-2.3,7c-1.9,1.1-4,2.4-6.1,4.3
		c-0.2,0.1-0.4,0.3-0.7,0.4c-1.5,0.8-3.7,2.1-5.6,4.4c-1.3,1.6-2.6,3.3-3.8,4.9c-2.2,2.9-4.2,5.7-6.5,7.6c-2.1,1.8-3.1,3.9-3.6,5.4
		c-1.2,1.3-2.5,2.6-4,4c-2.1,2-4.2,4.1-6.3,6.5c-2.2,2.6-3.9,5.4-5.4,7.8c-1.1,1.7-2.1,3.4-3.2,4.8c-0.4,0.5-0.8,1.1-1.2,1.6
		c0.2,0.1,0.3,0.3,0.3,0.4c0.1,0.5-0.4,1.1-0.8,2c-0.3-0.2-0.6-0.5-0.8-0.6c-3.6,4.8-7.3,9.7-10.7,15c-3.5,5.5-6.6,10.5-9.6,15.7
		c-0.4,0.2-0.8,0.4-1.2,0.6c-2.5,1.4-4.4,3.1-5.7,5c0.3,0.7,0.6,1.5,0.8,1.9c-0.1,2.1-2.3,3.9-3.9,3.8c-0.1,0.2-0.1,0.3-0.2,0.5
		c-0.1,0.3-0.3,0.7-0.4,1c-0.2,0.1-0.4,0.3-0.6,0.4c-1.3,0.8-3,2-4.6,3.7c-0.2,0.2-1,0.8-1.5,1.2c-2.3,1.8-5.8,4.5-7.5,9
		c-2.1,5.6-4.1,9.8-6.5,13.8l-0.7,1.2c-1.9,3.2-3.6,5.9-5.7,7.8c-3.4,3-5,6.7-6.2,9.4c-0.4,0.8-0.7,1.6-1,2.2
		c-0.6,1.2-1.5,2.4-2.4,3.8c-2.4,3.7-5.4,8.2-6.5,14c-0.2,0.9-13.1,10-15.9,17.6c-0.7,2-2,6-2.5,10.1c-0.3,2.4,0.1,4.5,0.6,6.2
		c-1,0.8-2.2,1.9-3.3,3.2c-3.3,1.8-6.5,4.4-9.8,8c-2.9,3.2-3.7,7-4.2,9.5c-0.1,0.3-0.1,0.7-0.2,1c-1.3,1.3-8,2.9-8,2.9
		s-6.4,12.9-34.7-14.1c3.1-6.4,6.1-12.8,9-19.1c3-6.4,6-13,9.2-19.4c0.7-1.4,1.4-2.7,2.2-4.1c2.2-4.2,4.6-8.5,6-13.7
		c0.6-2.2,0.5-4.3,0.4-5.9c0.6-0.7,1.2-1.6,1.8-2.6c1.2-0.9,2.6-2.3,3.6-4.4c2.4-5.2,4.9-10.5,7.4-15.6c3.5-7.2,7.2-14.7,10.4-22.3
		c3.6-8.4,6.2-17,8.7-25.4c2.1-7.1,4.1-13.8,6.7-20.2c1.7-4.2,3.6-8.4,5.7-12.8c3.4-7.3,6.9-14.9,9.4-23.2c1-3.3,1.8-6.5,2.5-9.7
		c0.9-3.8,1.8-7.4,2.9-10.9c3.7-11.2,7.5-23.1,11.4-36.3c2.3-7.8,3.8-15.7,5.2-23.3c0.9-4.9,1.8-9.6,2.9-14.2
		c1.7-7.2,3.8-14.2,6-21.7c1.3-4.4,2.6-8.8,3.8-13.3c-0.9-1-1.5-1.8-2.1-2.7c-0.1-0.2,0.7-1,1.1-1.6c0.6,0.5,1.1,1,1.7,1.6
		c0.6-2.3,1.2-4.7,1.7-7c-0.3-0.4-0.5-0.8-0.7-1.2c0.4-0.2,0.8-0.6,1.2-0.8c0.2-0.7,0.3-1.5,0.5-2.2c1.2-5.9,2.1-11.8,3-17.6
		c0.3-2.1,0.6-4.1,1-6.2c0.7-4.5,1.7-8.9,2.7-13.6c0.5-2.2,0.9-4.4,1.4-6.6c1.5-7.3,1.5-14.4,1.5-21.2c0-4.9,0-9.6,0.6-14
		c0.5-4.1,0.9-8.2,1.3-12.2c0.7-7.2,1.4-13.9,2.6-20.6c0.6-3.6,1.6-7.3,2.5-11.2c1.4-5.4,2.8-11,3.5-16.9c0.6-4.9,0.6-9.7,0.6-14.3
		c0-3.7,0-7.3,0.3-10.7c0.1-0.5,0.6-1.8,0.9-2.7c0.9-2.3,2.1-5.2,2.3-8.6c0.5-6.5,0.2-12.8-0.1-19c-0.3-5.6-0.5-10.9-0.2-16.1
		c0.2-3.8,1-7.8,1.7-12c0.9-4.6,1.8-9.4,2.1-14.5c0.3-5.5,0.2-10.9,0-16.3c-0.4,0.3-0.8,0.6-1.3,0.9c-0.5,0.2-1.6,0-1.9-0.5
		c-1.7-2.2,0.2-3.6,1.4-5c0.3-0.3,0.8-0.4,1.6-0.7c-0.3-6.2-0.5-12.2-0.2-18c0.3-5.9,0.7-12,1.2-17.8c0.3-4.5,0.7-9.2,0.9-13.9
		c0.3-5.3,0.5-9.2,0.5-12.7c-0.7,0.3-1.5,0.7-2.2,0.7c-0.7-0.1-1.8-1-1.8-1.6c0-0.7,0.8-1.8,1.5-2c0.5-0.2,1.4,0.6,2.1,1
		c0.1,0.2,0.2,0.4,0.4,0.7c0-6-0.5-11.1-1.6-20.5c-0.7-5.8,1.1-10.2,0.7-11.4c-0.1-0.2-0.2-0.5-0.2-0.7c0-0.5-0.1-1-0.1-1.5
		c-0.2-2-0.4-3.9-0.4-5.6c0-1.1,0.1-2.2,0.1-3.5c0.2-4.1,0.4-8.7-1.1-13.7c-1.9-6.5-11-46.5,25.1-49.3c7.3-0.6,14.3-2.5,21.1-4.1
		c6.8-1.6,13.3-3.2,19.7-3.8c5.8-0.5,11.5-0.7,17.7-0.9c3.5-0.1,7.1-0.2,10.7-0.4c0.7,0,1.4-0.1,2-0.1c3.4-0.1,7.2-0.3,11.3-1.6
		c3.8-1.2,8.4-1.2,13.3-1.3c2.5,0,5.2-0.1,7.9-0.2c5.4-0.4,10.6-1.3,15.6-2.3c6-1.1,11.6-2.2,16.9-2.1c0.3,0.1,0.9,0.3,1.3,0.5
		c1.1,0.5,2.6,1.1,4.2,1.5c1.6,0.4,3.2,0.6,4.8,0.5c4-0.2,8.4,0.7,13,1.6c2.9,0.6,5.9,1.2,9.1,1.6c4.6,0.6,8.3-1.2,10.7-2.4
		c0.4-0.2,1-0.5,1.3-0.6c1.6-0.4,3.3-0.5,5-0.5c7.9,0.2,16,0.4,23.7,0.5c6.2,0.1,12.6,0.2,18.9,0.4c1.2,0,2.6,0.3,4.4,0.7
		c1.2,0.3,2.5,0.7,3.8,1.1c1.5,0.4,3,0.9,4.6,1.3c1.4,0.4,2.7,0.6,3.9,0.8c3.7,0.6,7.3,0.5,10.4,0.4c2.8-0.1,5.5-0.2,7.4,0.3
		c2.8,0.7,5.8,2.2,8.9,3.8c0.8,0.4,1.6,0.8,2.4,1.2c1.2,0.6,2.5,2.2,4.1,4c0.8,0.9,1.5,1.8,2.4,2.8c0.3,0.3,1.1,1.2,1.5,1.8
		c0,0,0,0,0,0c-0.1,0.4-0.2,1.1-0.4,1.7c-0.3,1.5-0.7,3.3-0.8,5.4c-0.3,6.9,0.6,14.2,2.8,21.7c0,0.4,0,1.3-0.1,1.9
		c-0.1,0.8-0.1,1.6-0.2,2.5c0,0.9-0.3,2.1-0.6,3.4c-0.3,1.4-0.7,3-0.9,4.8C1129.4,1218.9,1124.7,1227.2,1124.3,1229.6z
		 M1088.7,1392.8c-0.5,0.3-1,0.7-1.6,0.9c-0.1,0-0.8-0.7-0.7-1c0.1-0.5,0.6-1,1.1-1.8C1088,1391.8,1088.4,1392.3,1088.7,1392.8z
		 M1075,1337.7c-1.3,1-2.2,2.3-3.1,2.3c-1.8,0.1-2.7-1.4-2.3-3c0.2-1,1.4-1.7,2.1-2.6C1072.7,1335.4,1073.6,1336.4,1075,1337.7z
		 M927.3,1451.5c-0.8,1.3-2,2.4-3.3,4c-0.7-1.4-1.5-2.3-1.3-2.5c0.9-1.3,2.1-2.4,3.2-3.5C926.4,1450.1,927.5,1451.2,927.3,1451.5z
		 M817.4,1282.8c0.2-0.6,1.6-0.9,2.4-1.1c0.3-0.1,1.1,0.5,1.1,0.8c0,3.8-0.1,7.6-3,11.5C815.7,1289.7,816.1,1286.2,817.4,1282.8z
		 M853.6,1154.2c0.3-0.7,1-1.3,1.5-1.9c0.4,0.5,1.1,1,1.1,1.6c0,0.6-0.7,1.1-1.2,1.9C854.4,1155.1,853.5,1154.4,853.6,1154.2z
		 M933,1153.5c0.7-0.5,1.3-1.1,2.1-1.3c0.2-0.1,0.8,0.9,1.6,1.8c-1.1,0.5-1.8,1-2.6,1C933.8,1155,933.4,1154,933,1153.5z
		 M954,1102.1c0.5-0.4,0.9-1.1,1.4-1.2c0.4-0.1,1,0.6,1.7,1.2c-0.7,0.6-1.3,1.2-1.8,1.2C954.9,1103.2,954.5,1102.5,954,1102.1z
		 M997.1,1109.7c0.9-0.3,1.7-0.8,2.6-0.8c0.4,0,0.8,1,1.6,2c-1.2,0.4-2.2,1.1-2.9,0.9C997.8,1111.7,997.5,1110.5,997.1,1109.7z
		 M1114.3,1148.2c0.6,0.5,1.1,1.5,1.1,2.3c0,0.5-1,1.4-1.4,1.4c-0.8-0.1-1.6-0.7-2.1-1.4c-0.4-0.5-0.2-1.4-0.3-2.2
		c-4.8-0.8-5-1.1-3.3-4.6c0.5-1.1,1.1-2.2,1.6-3.3c1.7-3.2,1.7-3.2,6.8-0.5c-1.5,2.6-3,5.3-4.5,7.9
		C1112.9,1147.9,1113.8,1147.8,1114.3,1148.2z M1131.2,1147c0.6,0.5,1,1.4,1.7,2.4c-1.1,0.4-2.2,1-2.2,0.8c-0.5-0.7-0.9-1.6-1-2.4
		C1129.6,1147.6,1131,1146.9,1131.2,1147z M1130,1124.9c0.5-0.5,0.9-1.3,1.4-1.3c0.5,0,1.1,0.7,1.8,1.2c-0.6,0.7-1,1.3-1.3,1.8
		C1131.2,1126,1130.6,1125.5,1130,1124.9z M1127.5,1144.5c-1.2-0.4-2.7-1.5-3-2.6c-0.2-0.9,1.2-2.2,2.6-4.3c1.3,2.3,2.4,3.5,2.8,4.9
		C1130,1143,1128,1144.7,1127.5,1144.5z M1129,1364.5c-0.7-0.3-1.4-1.4-1.3-2.1c0-0.6,1.1-1.1,1.8-1.7c0.6,0.7,1.2,1.3,2.1,2.4
		C1130.3,1363.8,1129.4,1364.7,1129,1364.5z M1132.5,1287.7c-1.3-0.8-3-2.5-2.9-3.6c0.3-2.3,1.4-4.7,3.9-6c2.6,2.2,3,4.8,2,7.4
		C1135.1,1286.5,1132.9,1287.9,1132.5,1287.7z M1140.2,1356.9c-0.6,0.9-1.7,1.6-2.7,1.9c-0.5,0.1-1.3-1-2-1.6c1-0.9,1.9-1.8,3.4-3.1
		C1139.6,1355.4,1140.4,1356.6,1140.2,1356.9z M1142.3,1330.8c-1.2,2.7-3.2,3.5-6.6,1.4c1.2-1.6,2.2-3.2,3.5-4.4
		c0.4-0.4,2-0.1,2.6,0.4C1142.2,1328.8,1142.6,1330.1,1142.3,1330.8z M1142.7,1150.2c2.8-2.2,4.4-3.4,6.7-5.2c0.5,1.9,1.3,3.3,1,4.2
		C1149.6,1151.1,1149.3,1151,1142.7,1150.2z M1146.1,1122c0.1-0.7,1-1.3,1.6-1.7c0.2-0.1,0.9,0.8,1.8,1.5c-0.7,0.8-1.3,1.4-1.9,2
		C1147.1,1123.1,1146,1122.5,1146.1,1122z M1147.2,1208c-0.1,0.1-0.9-0.5-0.9-0.8c0-0.6,0.3-1.2,0.7-2.2c0.7,0.7,1.5,1.2,1.4,1.6
		C1148.3,1207.1,1147.7,1207.6,1147.2,1208z M1150.4,1236.5c0.5,0,1,0.8,1.8,1.4c-0.8,0.5-1.4,1.3-1.8,1.2c-0.6-0.1-1-0.9-1.5-1.4
		C1149.5,1237.3,1150,1236.5,1150.4,1236.5z M1151,1248.1c-1-1.2-2-1.9-1.9-2.5c0.1-0.7,1-1.4,1.5-2.1c0.6,0.5,1.7,1,1.8,1.6
		C1152.5,1245.8,1151.7,1246.7,1151,1248.1z M1154.9,1255.5c-0.6-1-1.3-1.5-1.2-2.1c0-0.4,0.9-0.8,1.4-1.1c0.1-0.1,0.9,0.7,0.8,1
		C1155.9,1253.9,1155.5,1254.5,1154.9,1255.5z M1154.6,1218.2c-0.6,0.3-1.8-0.2-2.5-0.6c-0.3-0.2-0.3-1.6,0-2c2-2.4,4-4.8,6.2-7.1
		c0.4-0.4,1.7,0,3,0.1C1160.2,1213,1158.3,1216.3,1154.6,1218.2z M1152.3,1176.1c0.6-0.2,1.2-0.7,1.7-0.6c0.5,0.1,0.8,0.9,1.3,1.6
		c-0.8,0.4-1.3,0.7-1.9,1C1153.1,1177.4,1152.7,1176.8,1152.3,1176.1z M1160.8,1252.2c-0.6-0.9-1-1.4-1.4-2c0.5-0.3,1-0.8,1.6-1
		c0.2-0.1,0.9,0.6,0.9,0.9C1161.7,1250.8,1161.3,1251.3,1160.8,1252.2z M1162.6,1130.7c-0.1-0.2,0.7-1.4,1.2-1.5
		c0.7-0.1,1.5,0.4,3.1,1c-1.2,1.2-1.9,2.3-2.5,2.2C1163.8,1132.3,1163.1,1131.4,1162.6,1130.7z M1172.9,1283c0.7,0,1.5,0.8,2.8,1.6
		c-1.3,1.3-2.2,2.3-3.2,3c-0.2,0.1-1.7-0.9-1.8-1.6C1170.2,1284.3,1171.2,1283.1,1172.9,1283z M1170,1205.2c-2.4,0-2.4-1.9-2.3-3.7
		c0-0.2,0-0.4,0-0.7c0,0,0,0-0.1,0c0,0,0,0,0-0.1c-0.7,0-1.4,0.2-2,0c-0.5-0.2-1-0.9-1.2-1.4c-0.1-0.2,0.4-1.1,0.6-1
		c0.6,0.1,1.4,0.3,1.8,0.7c0.4,0.5,0.6,1.2,0.9,1.9c0,0,0.1,0,0.1,0c0,0,0,0,0,0.1c0.2,0,0.5,0,0.7,0c2-0.1,3.5,0.4,3.5,2.7
		C1171.8,1204.1,1170.6,1205.2,1170,1205.2z M1167.3,1143.6c0.4-1.2,0.8-2.4,1.3-3.4c0.2-0.3,1-0.6,1.2-0.5c0.6,0.3,1.4,0.9,1.4,1.4
		c0,1.2-0.3,2.4-0.8,3.5c-0.2,0.4-1.3,0.8-1.8,0.7C1168.2,1145,1167.8,1144.2,1167.3,1143.6z M1173.1,1174c-0.1-0.7-0.2-1.9-0.2-1.9
		c1.9-0.4,3.9-0.7,5.8-1c0,0.7,0.1,1.5,0.1,2.2C1177,1173.6,1175,1173.8,1173.1,1174z M1177.4,1162.8c0.8-2.3,2.4-3.3,5.3-2.5
		c0,1,0.1,1.3,0,1.4c-0.9,1.8-2.2,3.2-4.4,2.7C1177.9,1164.4,1177.3,1163.3,1177.4,1162.8z M1182.7,1216.9c-0.7,0.8-1.5,1.4-2.4,1.9
		c-0.1,0.1-0.8-0.9-1.5-1.8c1.2-0.7,2.1-1.2,3-1.6C1181.8,1215.3,1182.8,1216.7,1182.7,1216.9z M1181.9,1196.3
		c-0.8-0.8-1.8-1.4-2.1-2.4c-0.2-0.6,0.6-1.5,1.4-3.1c1.1,1.7,2,2.6,2.3,3.6C1183.6,1194.9,1182.5,1195.6,1181.9,1196.3z
		 M1192.7,1208c-0.4,0.1-1.3-0.6-1.4-1c-0.1-0.5,0.5-1.3,1-1.5c0.4-0.1,1.1,0.5,1.9,0.9C1193.5,1207.1,1193.2,1207.9,1192.7,1208z
		 M1188.6,978c0.7,0.8,1.3,1.6,2.1,2.6c-1,0.7-1.9,1.4-2,1.3c-0.8-0.7-1.5-1.5-2-2.4C1186.7,979.4,1187.9,978.6,1188.6,978z
		 M1163.5,983.1c0.1,2.4,1.4,5.2-1.6,6.4c-0.3,0.1-1.1-0.3-1.1-0.6C1160.1,986.3,1161.6,984.5,1163.5,983.1z M1158.1,1010.2
		c2.1,0.6,5,1.2,3.2,5.3c-2.6-0.8-4.6-1.5-7-2.3C1154.5,1010.8,1156.1,1009.6,1158.1,1010.2z M1141.8,996c0.5,0,1,0.7,1.7,1.3
		c-0.8,0.6-1.5,1.5-1.7,1.4c-0.7-0.4-1.2-1.2-1.7-1.8C1140.6,996.7,1141.2,996,1141.8,996z M1129.2,993.4c0.5,0,1,0.6,1.9,1.2
		c-0.7,0.6-1.2,1.3-1.7,1.2c-0.5,0-1-0.7-1.5-1.1C1128.4,994.3,1128.8,993.5,1129.2,993.4z M1104.3,883.8c-1-1.2-2-1.9-1.9-2.5
		c0.1-0.8,1-1.5,1.5-2.2c0.7,0.5,1.7,1,1.9,1.7C1105.8,881.5,1105,882.4,1104.3,883.8z M1135.8,830.3c-0.6-0.8-1.2-1.3-1.2-1.8
		c0-0.6,0.6-1.1,0.9-1.7c0.6,0.6,1.3,1.1,1.6,1.8C1137.2,828.9,1136.4,829.6,1135.8,830.3z M1216.1,734.4c-0.4,0.1-1.1-0.5-1.6-0.8
		c0.3-0.6,0.5-1.4,1-1.6c0.4-0.2,1.1,0.3,2,0.7C1216.9,733.5,1216.6,734.3,1216.1,734.4z M1233.1,685.8c-0.2,0.2-0.5,0.4-0.7,0.5
		c-1.3,0.9-2.9,2.1-4.4,3.8c-2.8,3.2-5.1,6.1-6.9,9c-2.6,4.1-5.1,8.3-7.5,12.4c-2.8,4.8-5.5,9.4-8.4,13.8c-3.3,5-4.3,10.1-5.3,14.6
		c-0.2,0.9-0.4,1.7-0.5,2.6c-0.5,2-1.5,4.4-2.7,6.9c-1.3,2.8-2.8,6.1-3.8,9.6c0,0.1-0.1,0.3-0.1,0.4c-5.3-0.7-9.5,2-11.5,5.5
		c-0.4,0.6-0.7,1.2-1.1,1.8c-2.4,4.1-4,6.8-6.3,8.3c-4.7,3.1-8.2,6-11.1,9c-3.7,3.8-5,8.2-5.8,11.8c-0.2,0.2-0.4,0.4-0.6,0.6
		c-4.3,0.7-8.2,2.1-11.7,3.5c-2.4,0.9-4.6,1.7-6.7,2.2c-0.3-0.1-0.7-0.3-1.2-0.5c-0.5-0.2-1.1-0.3-1.6-0.5c-2.2-0.5-4.5-1.4-7-2.2
		c-1.8-0.6-3.7-1.3-5.7-1.9c-8.9-2.7-14.5,3-17.2,5.7l-0.6,0.6c-0.6,0.6-1.4,1.3-2.3,2c-3.6,3.1-9.1,7.7-9.7,16.1
		c-0.1,1.9-0.8,4.3-1.5,6.7c-0.6,2-1.2,4.2-1.6,6.5c-4.1,0.4-7.9,1.4-11.5,2.9c-4,1.7-6.1,1.5-8.7,0.6c-0.2-0.1-0.5-0.2-0.8-0.3
		c-0.7-0.5-1.6-1.1-2.9-1.5l-0.4-0.1l-2.2-0.6l-1.8,0.2c-2.1,0.2-6.3,1.3-8.2,6.2c-1.6,0.2-3.4,0.4-5.2,0.5
		c-2.7,0.2-5.4,0.4-8.3,0.9c-2.5,0.5-4.7,1.2-6.7,1.9c-1.7,0.6-3.3,1.1-4.4,1.3c-0.1,0-0.3-0.1-0.5-0.2c-0.3-0.1-0.5-0.2-0.8-0.3
		c-0.4-0.1-0.7-0.3-1.1-0.4c-1-0.4-2.3-0.8-3.9-1.1c-1.6-0.3-3.2-0.6-4.8-0.8c-4.9-0.8-9.5-1.6-13.6-3c-0.6-0.2-1.1-0.4-1.7-0.6
		c-4.2-1.8-8.4-3.5-12.5-5.2c-4.8-2-9.7-4-14.5-6.1c-1.1-0.5-2.4-1-3.8-1.6c1,0.9,1.8,1.6,2.5,2.4c0.1,0.1-1,1.5-1,1.4
		c-1.1-0.7-2.2-1.4-3.2-2.2c-0.1-0.1,0.4-0.9,1-1.9c-1-0.4-2.1-0.9-3.2-1.3c-0.1,0-0.2,0.1-0.2,0.1c-0.3-0.1-0.6-0.3-0.9-0.5
		c-0.9-0.3-1.8-0.7-2.7-1c-10.4-3.7-19.5-5.4-28.4-5.1c-1.8,0-3.8-0.1-5.8-0.2c-2.2-0.1-4.5-0.3-6.9-0.3c-4.2,0-8.1,0.9-11.5,1.7
		c-1.2,0.3-2.3,0.5-3.4,0.7c-13.7,2.6-29.8,6-45.9,10.7c-5.2,1.5-9.4,4.3-13.1,6.7c-1.5,1-3,1.9-4.3,2.7c-0.2,0-0.4,0.1-0.6,0.1
		c-2.2,0.3-5.3,0.6-8.1,2.4l-8.7,5.7l6.1,8.4c3.2,4.4,8.9,39.7,13.3,43c6.4,4.9,13.9,9.2,21.8,12.4c3,1.2,6.2,2.4,10.1,3.9
		c2.5,0.9,4.9,1.7,7.4,2.6c2.4,0.8,4.8,1.7,7.2,2.5c1.6,0.6,9,11.1,19.3,17.8c7.1,4.6,16.3,4.8,23.2,9.2
		c9.7,6.2,17.6,11.1,18.9,11.3c2.8,0.3,5.4,0.6,7.6,1.2c0.3,0.1,0.6,0.2,0.9,0.2c0.5,0.1,1,0.2,1.2,0.3c0.5,0.2,0.9,0.4,1.4,0.5
		c7.5,2.7,14.7,2.2,21,1.8c1.6-0.1,3-0.2,4.4-0.2c4.5-0.2,8.9-0.6,13.2-1c3.6-0.3,7-0.7,10.5-0.8c0.2,0,0.6,0,1,0
		c2.5,0.1,7.8,0.3,12.2-4.4c0.5-0.5,1.1-1.1,1.6-1.7c-0.1-0.1-0.2-0.3-0.2-0.4c0-0.7,0.8-1.8,1.5-2c0.2-0.1,0.5,0,0.8,0.2
		c0.8-0.8,1.6-1.6,2.4-2.5c1.7-1.9,2.8-3.8,3.7-5.4c0.4-0.6,0.8-1.5,1.1-1.8c1.5-1.3,5.5-2.6,8.8-1.4c0.3,0.1,0.5,0.2,0.8,0.3
		c0.1,1.8,0.4,4.1,1.7,6.3c0.9,1.6,1.7,3.6,2.5,5.7c0.9,2.4,2,5.1,3.5,7.8c2.9,5.3,7.6,8.7,11.4,11.4c0.7,0.5,1.3,1,2,1.4
		c6.6,5,13.6,9,20.4,12.9l0.4,0.2c0,0,0,0,0,0.1c1,1.5,2.9,4.2,6.4,5.5c0.7,0.5,1.7,1.1,2.8,1.5c2,0.7,4.1,0.9,6.2,0.4
		c1,0,1.9,0,2.6-0.1c1.6,0.4,4.2,0.8,7.3-0.1c0,0,0,0,0.1,0c1.7,0.2,5.3,0.5,8.8-1.1c2.7,1.7,5.4,2.7,7.8,3.6c0.5,0.2,1,0.4,1.5,0.5
		c0.5,0.2,1.6,0.9,2.4,1.4c1.4,0.9,3.2,2.1,5.3,3c0.5,0.4,1.7,1.8,2.4,2.8c1,1.3,2.1,2.7,3.5,4.2c3.2,3.4,7.2,5.3,10.3,6.8
		c1.1,0.5,2.2,1.1,3.1,1.6c0.1,0.1,0.4,0.3,0.7,0.5c1.2,0.8,2.7,1.9,4.8,2.6c3.2,1.2,6.6,1,9.5-0.4c0.8-0.4,1.8-0.8,2.8-1.2
		c1.6-0.6,3.3-1.4,5.1-2.3c3-1.6,4.6-4,5.6-5.4l1.8-1.1l1.1-2.7c0,0,0.1,0.1,0.1,0.1c0.2,0.3,0.6,0.7,0.8,1l0.2,0.7
		c1,3.3,2,6.7,2,9.5c0,2.2-1,5-2.2,8c-0.6,1.6-1.2,3.2-1.8,5c-3,9.6-0.5,18.7,1.5,25.9l0.2,0.7c-0.1,0.4-0.2,0.9-0.4,1.3
		c-0.3,0.9-0.6,2-0.8,3.2c-0.9,4.5-1.4,8.9-1.9,13.1c-0.3,2.7-0.6,5.3-1,7.9c-1.1,1.3,1,22-2.2,32.9c-0.4,0.2-0.7,0.4-1.1,0.7
		c0.2,0.5,0.4,0.9,0.6,1.4c0.1,0.4-0.2,0.9-0.3,1.4c1,0.5,2,1,3,1.6c-0.4,0.6-0.6,1.5-1.1,1.7c-2,0.6-2.5-1-2.9-2.4
		c-0.4-0.6-1.2-1.2-1.4-1.8c-0.1,0.2-0.3,0.3-0.4,0.5c-2.2,2.9-3.8,6-5.2,8.8c-1.3-1.1-2.8-1.9-4.5-2.5c-0.9-0.3-1.6-0.5-2.2-0.6
		c-0.1,0-0.2-0.1-0.3-0.1c-0.5-0.3-1.3-1.2-1.9-1.7c-2.1-2-4.8-4.5-8.6-5.9c-0.5-0.2-0.9-0.3-1.4-0.4c-2.5-0.7-4.7-0.7-6.6-0.7
		c-0.2,0-0.3,0-0.5,0c-0.5-0.4-1.1-0.8-1.8-1.2c-0.7-0.4-1.3-0.7-2-1.1c-2-1.1-3.9-2.2-5.6-3.4c-0.9-0.6-1.8-1.1-2.9-1.5
		c-4.2-1.5-8-0.4-10.4,0.3c-0.8-0.4-1.7-0.9-2.9-1.3c-1.1-0.4-2.2-0.7-3.3-0.8c-4.1-0.4-7.4,0.6-9.9,1.4c-0.3,0.1-0.7,0.2-1,0.3
		c-1.2,0.4-2.2,0.8-3.1,1.2c-0.3,0.1-0.6,0.3-0.9,0.4c-1-0.1-2.2-0.2-3.5-0.4c-0.7-0.1-1.3-0.2-2-0.2c-0.8-0.5-1.7-1.2-2.9-1.6
		c-2.2-0.9-4.5-1.9-6.8-3c-1.5-0.7-3.1-1.4-4.7-2.1c-0.5-0.2-1.2-0.6-1.9-0.9c-1.4-0.7-2.9-1.5-4.8-2.2c-1.8-0.6-3.5-1-5.3-1.2
		c-5.1-0.4-9.5,0.8-13.4,1.8c-1.8,0.5-3.5,0.9-5,1.1c-1.4,0.2-3.5,0-5.7-0.3c-2.8-0.3-6-0.7-9.4-0.3c-0.2,0-0.4,0-0.6,0.1
		c-4.6-0.2-9.3-0.7-14.1-1.1c-4.9-0.5-10-1-15.2-1.2c-0.1,0-0.3-0.1-0.4-0.1c-1.2-0.4-3-1-5.2-1c-3.2-0.1-5.8,0.9-7.6,1.8
		c-0.8-0.3-1.6-0.7-2.6-1.1c-1.9-0.7-3.8-1.1-5.6-1.1c-2.2-0.1-4.1,0.2-5.6,0.5c-0.3,0.1-0.7,0.1-1,0.2c-0.8-0.4-1.8-1-3-1.4
		c-1.5-0.6-3.1-0.8-4.6-0.8c-5.7,0.1-11.3,0.2-16.9,0.4c-5.9,0.2-12,0.4-18,0.4c-4.7,0-8.6,1.5-11.8,2.7c-0.3-0.1-0.6-0.2-0.9-0.3
		c-1-0.4-2.1-0.6-3.1-0.6c-2.7-0.1-5.1,0.7-7.2,2.5c-4.3,0.1-8.7-0.2-13.4-0.5c-3.6-0.3-7.3-0.5-11-0.6c-1-0.9-2.3-1.7-3.9-2.3
		c-1.8-0.6-3.6-0.8-5.5-0.5c-1.5,0.3-3,0.6-4.3,0.9c-3.3,0.7-6.1,1.3-8.6,1.1c-5.6-0.5-11-0.4-16.2-0.4c-3.4,0-6.7,0.1-9.9,0
		c-1.1,0-2.6-0.3-4.2-0.6c-2.9-0.5-6.5-1.2-10.4-0.8c-0.3,0-0.7,0.1-1,0.1c-2.5-0.7-5.1-0.5-7.4,0.7c-1.6,0.8-3,1.6-4.3,2.4
		c-0.6,0.4-1.2,0.7-1.9,1.1c-1.3,0.7-2.3,0.8-2.7,0.6c0,0-0.1,0-0.1-0.1c-0.2-0.2-0.7-0.9-1-1.3c-0.8-1.1-1.8-2.6-3.3-3.9
		c-1.9-1.9-4.1-3.2-6.6-4.1c-2.6-0.9-4.9-1.2-7-1.4l-0.6-0.1c-0.1,0-0.3,0-0.6-0.1c-1-1.7-2.8-3.9-5.9-4.9c-0.5-0.2-0.9-0.3-1.4-0.4
		c-1.9-0.4-3.7-0.9-5.4-1.5c-4.7-1.7-8.7-4.2-12.4-7.9c-0.7-0.7-1.5-1.9-2.4-3.2c-1.5-2.2-3.2-4.7-5.8-7c-2.3-2.1-3.3-3.9-4.3-8.4
		c-0.7-3-2.2-5.1-3.2-6.5c-0.1-0.1-0.2-0.3-0.3-0.4c-2.8-9.3-7.6-17.9-13.9-24.9c-1.9-2.1-4.2-3.7-7.1-4.7c-1.5-0.6-3.1-0.9-4.5-1.1
		c-0.4-0.7-1-1.4-1.6-2.1c-2.4-2.6-5.1-4.6-7.5-6.5c-1.8-1.4-3.5-2.7-4.9-4.1c-1.8-1.8-2.8-3-3.3-3.8c1.7-2.1,3.5-5.4,2.8-9.7
		c-1-5.9-3.8-10.8-6.3-15.1c-1.6-2.7-3-5.2-3.7-7.4l-0.2-0.7c-0.8-2.8-2-7.4-7-10.6c-0.1-0.1-0.1-0.2-0.2-0.3
		c-0.8-1.7-1.9-4-3.9-6.1c-1.6-1.6-3.6-2.9-6-3.8c-4.3-1.5-9.4-1.5-13.6,0.1c-2.5,1-4.4,2.3-6,3.4c-0.5,0.3-1.2,0.8-1.7,1.1
		c-0.1,0-0.2,0-0.3-0.1c-0.4-0.7-0.8-1.4-1.4-2.2l-0.4-0.5c-1.6-2-3.9-4.9-8.2-6.6c0.1-1,0.2-2.1,0.3-3.2c0.3-2.5,0.6-5.3,0.5-8.3
		c-0.1,0-0.1,0-0.2,0c-0.6,0.1-1.3-1-1.9-1.6c0.6-0.4,1.1-1,1.6-1.4c-0.3-1.3-0.9-2.4-1.4-3.3c0.3-0.5,0.5-1,0.8-1.4
		c0.4-0.8,1.9-3.8,1.6-7.3c-0.1-1.2-0.4-4.1,0.1-5.5c0.1-0.1,0.2-0.2,0.3-0.3c1.6-1.8,4.9-5.5,4.4-11.2c-0.3-3.5-1.7-6.4-2.7-8.4
		c-0.2-0.5-0.6-1.2-0.8-1.6c0-1.2,0.5-3.1,1-4.9c0.4-1.7-0.9-33.9-0.6-35.9c0.1-0.8,0.3-1.6,0.4-2.4c0.5-2.8,1.1-6.1,0.9-9.7
		c-0.3-6.2-5-9-6.6-10c-1.9-1.7-3.6-4.3-5.4-7c-0.6-0.9-1.3-1.9-2-2.9c-0.2-1.2-0.7-2.8-1.8-4.4c-2.6-3.8-6-5.6-8.4-6.9
		c-1.1-0.6-2.3-1.5-3.6-2.4c-2.7-1.9-5.8-4.1-9.6-5.5c-1.1-0.4-2.3-0.7-3.4-0.9c-2.2-0.4-4.2-0.3-5.9,0.2
		c-0.7-6.1-1.4-11.9-1.3-17.6c0.1-4.1-0.1-8.1-0.2-12.1c-0.2-6.6-0.4-12.8,0.3-18.7c0.2-0.5,0.8-1.3,1.2-1.9
		c1.3-1.9,2.9-4.3,3.8-7.4c0.8-1.2,1.9-3.1,2.2-5.7c8-6.1,10.1-16.7,10.6-21c0.2-2.1,0-3.9-0.1-5.2c0-0.1,0-0.3-0.1-0.5
		c0.4-1.2,1.1-2.5,2.3-4.1c1.6-2,2.7-4.1,3.8-5.9c1-1.7,1.9-3.3,2.7-4.1c0.7-0.6,1.4-1.3,2.2-2c3.3-2.9,7.3-6.5,9.7-12
		c4.7-1.6,9.6-2.8,14.7-4.2c5.8-1.5,11.8-3,17.8-5.1c14.2-5.1,28.8-8.1,44.2-11.3c1.8-0.4,3.7-0.8,5.5-1.1
		c6.8-1.4,13.3-3.6,19.5-5.7c6.9-2.3,13.4-4.5,20-5.6c7-1.1,14.1-1.6,21.6-2.2c6.3-0.5,12.8-0.9,19.3-1.8c1.2-0.2,2.4-0.4,3.4-0.6
		c0.8-0.2,2.1-0.4,2.5-0.4c5.1,0.9,10.4,1.9,15.4,2.9c8,1.5,16.2,3.1,24.4,4.5c3.4,0.6,6.8,1.4,10.5,2.4c5.2,1.3,10.5,2.7,16.2,3.3
		c7.1,0.7,14.1,0.6,20.8,0.5c3.3-0.1,6.3-0.1,9.4-0.1c9.7,0.1,20,0,30.4-1.1c12-1.3,24.6-3.5,38.5-6.7c5.4-1.3,10.1-3.4,14.6-5.5
		c1.9-0.9,3.6-1.7,5.4-2.4c1.2-0.5,2.4-1,3.7-1.5c0.1-0.7,0.9-1.4,1.3-2.1c0.4,0.3,0.9,0.6,1.4,0.9c2.8-1.2,5.5-2.3,8.2-3.5
		c5.9-2.6,12-5.2,18-7.6c11.3-4.4,27.4-12.2,37.6-28.7c11-17.7,12.8-38.7,5.2-58.9c-2.6-6.9-6.9-12.5-10.7-17.5
		c-0.6-0.8-1.2-1.5-1.7-2.3c-1.4-1.8-2.7-3.6-4.1-5.6c-7.1-9.8-14.4-19.8-25.1-27.3c-3.5-2.5-7.3-4-9.8-4.9
		c-1.6-0.6-3.2-1.1-4.8-1.6c-1.4-0.5-2.8-0.9-4.1-1.3c-1.3-0.5-2.4-0.9-3.3-1.4c-0.8-0.4-1.8-1.1-2.8-1.9c-1.8-1.3-3.7-2.7-6.2-3.8
		c-0.7-0.3-1.4-0.6-2.1-0.9c-3.6-1.3-7.2-1.7-10.5-1.1c-2.1,0.3-3.8,1.1-5,1.6c-4.8-1-9.2-0.9-13-0.7c-6.9,0.4-16,1.2-25.2,4.3
		c-9.7,3.3-16.2,9.5-20.8,14.6c-0.9,1-2,2-3.1,3.1c-2.1,2.1-4.6,4.5-6.7,7.4c-5.5,7.4-7.8,15.7-9.2,22.1c-0.2,0.7-0.3,1.4-0.3,2
		c0.9-0.7,1.7-1.7,2.7-2c0.6-0.2,1.5,0.7,3.1,1.5c-1.9,1.2-3,2.1-4.2,2.6c-0.3,0.1-1-1.2-1.6-1.9c-0.2,1.8-0.1,3.4,0.1,4.9
		c0.5,5.1,1.4,9.8,2.7,14.3c0.3-0.5,0.8-1,1.3-1.1c0.5-0.1,1.3,0.9,2.5,1.8c-1.4,0.7-2.2,1.3-2.9,1.3c-0.1,0-0.2,0-0.2-0.1
		c2.7,8.4,6.8,15.6,12.4,21.7c3.4,3.7,3.5,5.8,3.3,7.4c-0.4,3.4-5.3,4.8-7.7,4.7c-5.7-0.1-11.2,0.6-16.5,1.3
		c-4.5,0.6-8.8,1.2-12.9,1.2c-1.9,0-4.2-0.3-6.5-0.6c-3.3-0.5-6.9-1-10.9-0.8c-2.7,0.1-5.2,0.4-7.6,0.7c-3.7,0.5-7.1,0.9-10,0.5
		c-2.9-0.4-5.3,0.2-6.8,0.8c0,0,0,0,0,0c-1.7-0.5-4.3-1.2-7.4-0.9c-1.2,0.1-2.2,0.3-3.1,0.5c-0.1,0-0.3,0.1-0.5,0.1
		c-1-0.9-2.4-1.9-4.2-2.6c-1.2-0.4-2.4-0.6-3.7-0.7c-8-0.1-16,1-23.1,2c-0.2-0.1-0.4-0.2-0.5-0.3c-0.6-0.3-1.4-0.7-2.3-1.1
		c-0.4-0.2-0.8-0.3-1.3-0.5c-4-1.4-8-1.4-11.1-1.4c-1.4,0-2.6,0-3.5-0.1c-4-0.5-7.9-0.8-11.6-1.1c-3.9-0.3-7.7-0.5-11.3-1.1
		c-2.1-0.3-4.3-0.8-6.7-1.2c-2.7-0.6-5.6-1.1-8.6-1.5c-12.2-1.6-24.5-4.4-36.4-7.1c-3.7-0.8-7.4-2-11.3-3.3
		c-4.3-1.4-8.7-2.8-13.4-3.9c-2.1-0.5-4-0.6-5.6-0.6c-0.8,0-2-0.1-2.4-0.2l-0.2-0.1c-4.4-1.6-8.8-2.2-12.7-2.7
		c-2-0.3-3.9-0.5-5.6-0.9c-1.4-0.3-2.8-0.6-4-1c-0.4-1.2-0.9-2.4-1.8-3.6c-0.3-2-1-3.6-1.5-4.9c0.3-1.3,0.5-2.9,0.1-4.7l-1.5-7.5
		l-1.8-0.1c0,0,0.1,0,0.1-0.1c2.4-1,4.4-2.3,6.1-3.5c1.2-0.8,2.4-1.6,3.2-1.9c3.5-1.2,6-3.2,7.7-4.8c2.9,0.1,7.1,0.1,11.6-2.1
		c2.2-1.1,4.3-2.1,6.4-3.2c2.1-1.1,4-2,6-3c1.6-0.8,2.8-1.8,3.6-2.8c1.4,0,3,0,4.8-0.3l6.3-1.2l1.4-6.3c0.5-2.2,0.3-4.2,0.1-5.9
		c1.8-1,4.7-2.9,6.2-6.6c0.4-0.9,0.6-1.8,0.8-2.6c0.7-0.5,1.4-1.1,2-1.8c1,0,2.2,0.1,3.4,0c4-0.3,7.7-1.7,9.6-2.5
		c7.7-3.3,11.5-11.4,12-18l0.2-2.8l-1.3-2.5c-0.2-0.4-0.4-0.8-0.7-1.2c2.2-0.5,4.4-1.3,6.7-2.4c0.8-0.4,3.5-1.9,4.8-5.1
		c0.4-0.1,0.8-0.2,1.2-0.4c6.3-2.2,10.6-6.9,13.7-10.6c0.9-1.1,1.8-2.3,2.7-3.4c1-1.3,2-2.6,3-3.7c2.1-2.5,3.2-5.2,4-7.1l0.1-0.4
		c0.7-1.7,1.1-2.5,1.3-2.8c0.5-0.3,1.1-0.6,1.8-0.9c2.6-1.3,6.2-3.2,9-6.9c0.1-0.1,0.1-0.1,0.2-0.2c1.1-1.1,3.1-3.1,4-6.2
		c1.2-4.2,3-8.1,5.7-12c1.6-0.6,3.4-1.8,4.8-3.9c3.1-4.6,2.6-11.1,0.3-15.8c0.4-1.2,0.6-2.4,0.8-3.5c3.1-1.2,7.4-4.2,7.6-11.9
		c1.8-1.4,4-3.3,5.3-6.4c2-4.7,3.6-8.3,6.1-11.4c3.2,0.1,5.9-1.1,8-3.4c1.3-1.5,2.4-2.9,3.3-4.2c0.6-0.8,1.5-2,1.9-2.5
		c0.7-0.3,1.6-0.8,2.5-1.5l5.2-3.8l-0.2-1.1c6.5-0.6,12.6-4.2,15.9-10c0.5-0.9,1-1.8,1.4-2.7c1.2,0.3,2.4,0.5,3.8,0.6
		c6.2,0.4,11.5-2.5,15.4-4.6l1-0.5c1.1-0.6,2.5-1.1,4-1.7c0.1,0,0.2,0.1,0.2,0.1c1.3,0.7,2.6,1.4,3.6,2.2c4.4,3.2,9,6,13.4,8.7
		c4.3,2.6,8.3,5.1,12.1,7.8c3.6,2.6,7.1,5.8,10.7,9.2c3.8,3.6,7.8,7.3,12.3,10.6c4,2.9,7.8,6.1,11.9,9.5c4,3.3,8.2,6.8,12.6,10
		c4.6,3.4,9.4,6,14.1,8.6c4.2,2.3,8.1,4.4,11.5,6.9c1.7,1.2,3.4,2.5,5.1,3.7c3.9,2.8,7.9,5.7,11.7,8.6c3.8,2.9,7.3,6.3,11.1,9.9
		c3.7,3.5,7.6,7.2,11.9,10.6c0.8,0.6,1.8,1.7,2.8,2.7c1.6,1.7,3.4,3.6,5.8,5.4c4.2,3,8.4,5.6,12.6,8.1c4.1,2.5,8,4.8,11.5,7.4
		c3.3,2.4,6.5,5,9.8,7.6c3.5,2.8,7.1,5.7,10.8,8.4c9.1,6.6,18.8,12.3,28.2,17.8c5.6,3.3,11.3,6.6,16.8,10.1c3.6,2.3,7,5.3,10.6,8.6
		c3.6,3.2,7.3,6.6,11.5,9.5c3.7,2.5,7.2,5.2,10.9,8c0.6,0.5,1.3,0.9,1.9,1.4c1.5-1.6,2.8-4.3,5.4-2.3c2.4,1.9,0.8,4-0.7,5.8
		c1.4,1.1,2.9,2.1,4.3,3.1c4.1,2.9,8.3,5.9,12.4,8.8c3.7,2.7,7.5,5.4,11.4,8.1c4.7,3.3,9.6,6.1,14.3,8.8c4.6,2.6,8.9,5,12.8,7.8
		c2.5,1.7,4.9,3.7,7.5,5.8c1.9,1.6,4,3.2,6.1,4.8c2.4,1.8,3.8,4.1,5.6,8.9c2.7,7.4,5.2,14.7,5.8,22.4c0.9,10.7-1.1,21.3-3.3,32.5
		c-0.3,1.4-0.5,2.8-0.8,4.2c-0.9,4.9-1.1,9.6-1.3,14.3c-0.2,5.3-0.4,10.3-1.8,14.5C1240.1,668.1,1236.9,676.9,1233.1,685.8z
		 M1085.3,875.6c-0.5,0.1-1,0.3-1.5,0.4c-0.6-1-1.4-1.9-1.7-3c-0.2-0.7,0.5-1.6,0.8-2.4c0.7,0.5,1.7,0.9,2,1.6
		C1085.4,873.2,1085.2,874.4,1085.3,875.6z M1059.9,908c-1-0.3-1.8-1.2-2.7-1.8c0.7-0.6,1.3-1.6,2-1.8c0.7-0.1,1.5,0.6,2.8,1.3
		C1061.1,906.8,1060.3,908.1,1059.9,908z M1061.1,931.1c-0.3,0.7-0.9,1.4-1.6,1.9c-0.2,0.1-1-0.6-1.9-1.2c0.9-0.8,1.5-1.5,2.2-1.8
		C1060,929.8,1061.1,930.9,1061.1,931.1z M1057.4,891.1c0.4-1,1.4-1.7,2.6-2.9c0.7,1.4,1.6,2.4,1.3,2.9c-0.5,0.9-1.6,1.5-2.5,2.2
		C1058.4,892.5,1057.2,891.6,1057.4,891.1z M1061.7,935.6c0-0.2,1-0.4,1.2-0.2c0.4,0.5,0.6,1.1,1,2.1c-1,0-1.9,0.1-2.1-0.2
		C1061.5,937,1061.6,936.2,1061.7,935.6z M1063.4,883.5c0-0.6,0.3-1.2,0.7-2.2c0.7,0.8,1.4,1.2,1.4,1.6c0,0.5-0.7,1-1.2,1.4
		C1064.3,884.4,1063.4,883.8,1063.4,883.5z M1067.7,960.6c-3.9,1.7-5.7,0.9-5.8-3.4C1063.5,958.2,1065.2,959.1,1067.7,960.6z
		 M1066.7,877.9c-0.9-1.2-1.6-1.8-1.8-2.5c-0.1-0.3,0.9-1.4,1.2-1.3c0.8,0.2,1.5,0.8,2.2,1.2C1068,875.9,1067.6,876.6,1066.7,877.9z
		 M1068.3,855.9c-0.4,0.2-1.4-0.9-2.1-1.4c0.9-1,1.7-2.1,2.7-2.8c0.4-0.2,1.5,0.6,3,1.4C1070.3,854.5,1069.4,855.5,1068.3,855.9z
		 M1054.5,875.9c0.1,2.1-0.9,3.8-3.2,4c-0.7,0.1-1.4-1-1.9-1.3c0.2-2.6,1.1-4.3,3.4-4.5C1053.3,874.1,1054.5,875.2,1054.5,875.9z
		 M1040.3,918.5c0,0.7-1,1.8-1.8,1.9c-0.6,0.1-1.4-0.9-2.6-1.7c1.2-1,1.9-2,2.6-2C1039.2,916.7,1040.4,917.9,1040.3,918.5z
		 M1026.2,925.2c0.9,0,1.7,1.2,3.2,2.3c-1.5,0.9-2.5,2-3.4,1.9c-0.9-0.1-1.5-1.5-2.3-2.3C1024.5,926.5,1025.3,925.2,1026.2,925.2z
		 M1017.8,892.3c1.5-2.8,2.8-4.4,6.3-4.1C1022.9,891.2,1021.3,892.3,1017.8,892.3z M1028.6,875.2c-0.6-0.6-1.2-1.1-1.8-1.7
		c0.5-0.5,1-1.2,1.5-1.3c0.5,0,1.1,0.7,1.8,1.2C1029.5,874.1,1029.1,874.7,1028.6,875.2z M975.7,911.5c-2.6,0-4.3-1.2-4.3-3.9
		c0-0.5,1.1-1.4,1.5-1.3c2.4,0.6,3.7,2.2,3.6,4.6C976.1,911.2,975.9,911.5,975.7,911.5z M976.5,946.7c-1.1,0.3-2.1,0.8-2.3,0.6
		c-0.5-0.7-0.8-1.6-1.1-2.5c0-0.1,1-0.7,1.2-0.5C975,944.9,975.6,945.6,976.5,946.7z M949.6,843.9c-0.1,0.5-0.7,1.1-1.3,1.4
		c-0.2,0.1-1.1-0.5-1.1-0.8c0-0.6,0.4-1.2,1.2-3.4C949.2,842.7,949.7,843.3,949.6,843.9z M899.2,898.7c-0.1,0.5-0.9,0.9-1.6,1.6
		c-0.4-1-1-1.7-0.8-2.1c0.2-0.5,1-0.8,1.5-1.2C898.6,897.6,899.3,898.2,899.2,898.7z M861.1,897.4c0.3-0.8,1-1.4,1.7-2
		c0.1-0.1,1.1,0.6,1,0.8c-0.1,0.8-0.4,1.6-0.7,2.5c-0.5,0.2-0.9,0.5-1.4,0.7C861.5,898.7,860.9,898,861.1,897.4z M859.4,884
		c-0.5-0.9-1.6-2-1.4-2.7c0.2-0.8,1.5-1.5,2.5-1.7c0.3-0.1,1,1.3,1.9,2.3C861.1,882.8,860.3,883.4,859.4,884z M837.9,846.2
		c-1.5,1.1-2.3,2.2-2.8,2c-1-0.2-1.8-1.1-2.6-1.8c0.5-0.4,0.9-1.2,1.4-1.2C834.9,845.3,835.9,845.7,837.9,846.2z M656.9,607.1
		c0.9,1,1.9,1.6,1.9,2.3c0.1,0.7-0.8,1.5-1.2,2.2c-0.9-0.7-1.9-1.2-2.5-2C655,609.4,656,608.2,656.9,607.1z M666.2,605.4
		c1.7,2.7,2.8,3.6,2.7,4.4c-0.1,0.7-1.5,1.3-2.4,1.9c-0.6-0.9-1.4-1.8-1.6-2.8C664.7,608.2,665.5,607.2,666.2,605.4z M672.7,654.6
		c0.6-0.6,1.1-1.2,1.7-1.8c0.5,0.5,1.2,0.9,1.3,1.5c0.1,0.4-0.7,1-1.1,1.6C673.8,655.4,673.2,655,672.7,654.6z M677.7,569.8
		c0.1-0.7,0-1.1,0.2-1.1c1.2-0.6,2.5-1.1,3.7-1.5c0.1,0,0.6,1.1,0.6,1.2c-1.1,0.7-2.3,1.3-3.5,2C678.6,570.3,678.3,570,677.7,569.8z
		 M684.4,663.6c-0.1-0.3,1-1.4,1.2-1.4c0.7,0.3,1.4,0.9,1.9,1.5c0.1,0.2-0.7,1-1.4,2C685.3,664.9,684.6,664.4,684.4,663.6z
		 M690.3,612.5c0.3-2.1,1.1-4.1,1.7-6.1c0.7,0.1,1.4,0.2,2.2,0.4c0.1,2.1,0.4,4.1,0.3,6.1c0,0.5-1.5,1.4-2.2,1.4
		C691.5,614.2,690.2,613,690.3,612.5z M703.4,584.9c-0.7-1.4-1.6-2.3-1.4-2.9c0.2-0.7,1.4-1.6,2-1.5c0.6,0.1,1.5,1.3,1.5,2
		C705.5,583.1,704.5,583.8,703.4,584.9z M709.9,609.6c-0.6,1.4-1,3.1-2,4.3c-0.5,0.6-2.8,0.6-3.1,0.2c-0.6-1.1-1.1-2.9-0.5-3.7
		C705.5,608.5,707.4,607.9,709.9,609.6z M716.6,601.2c0.6-0.7,1.4-1.2,2.2-1.5c0.3-0.1,0.9,0.7,1.9,1.6c-1.5,0.7-2.4,1.1-3.4,1.6
		C717,602.3,716.4,601.4,716.6,601.2z M761.4,593.4c0.6-0.3,1.2-1,1.8-0.9c0.5,0,1,0.8,1.7,1.4c-0.8,0.6-1.6,1.4-1.7,1.3
		C762.5,594.8,762,594,761.4,593.4z M779.1,638.8c-0.6,0.6-1.2,1.5-1.9,1.6c-0.6,0.1-1.3-0.9-1.9-1.4c0.5-0.6,1.1-1.3,1.9-2.3
		C778.1,637.6,778.6,638.2,779.1,638.8z M780.3,626.2c1.1,1.5,2,2.3,2.4,3.3c0.1,0.4-1.1,1.2-1.7,1.9c-0.8-0.8-1.8-1.4-2.3-2.4
		C778.5,628.5,779.4,627.6,780.3,626.2z M777.2,645.6c0.4,0.5,0.8,1.1,1.4,2.1c-1.2,0.6-2.1,1.1-3.1,1.4c-0.1,0-1-1.5-0.9-1.6
		C775.4,646.8,776.3,646.2,777.2,645.6z M930.4,648.1c0.7-0.6,1.1-1,1.6-1.5c0.4,0.5,1.2,0.9,1.1,1.4c0,0.5-0.7,1-1.2,1.4
		C931.5,649.1,931,648.7,930.4,648.1z M933.3,626c0.1-0.7,1-1.4,1.7-1.8c0.2-0.1,1,0.7,1.8,1.4c-0.7,0.8-1.3,1.5-1.9,2.1
		C934.4,627.1,933.3,626.5,933.3,626z M983.9,508.3c1.9-0.4,3.3,0.6,3.4,2.6c0,0.6-1.3,1.8-1.7,1.7c-1.2-0.3-2.3-1.1-3.9-2
		C982.7,509.5,983.2,508.5,983.9,508.3z M982.1,497.9c1.2-1.2,2-2.1,2.9-2.6c0.2-0.1,1.9,1.4,1.7,1.8c-0.4,1-1.2,2-2.1,2.6
		C984.4,499.9,983.3,498.8,982.1,497.9z M995.7,618.3c0.4-0.5,0.6-1.3,1.1-1.4c0.5-0.1,1.1,0.5,3.1,1.5c-1.4,0.5-2,0.9-2.7,0.9
		C996.7,619.2,996.2,618.6,995.7,618.3z M1002.2,499.2c0.1-2.3,2.9-4.9,4.9-4.4c1,0.3,2.2,1.9,2.3,3c0.2,2.2-2.7,4.1-5.8,3.9
		C1003.3,501,1002.2,500.1,1002.2,499.2z M1066,539.4c1.5-4.1,3.4-6.6,7.2-7.7C1071.9,538.6,1071.7,538.9,1066,539.4z M1240.3,674.6
		c0.6-0.3,1.2-0.9,1.7-0.8c0.5,0,1,0.7,1.7,1.3c-0.8,0.6-1.5,1.4-1.7,1.3C1241.4,675.9,1240.9,675.2,1240.3,674.6z M1245.3,695
		c-2.2,0.4-4.2-1.4-3.8-3.3c0.2-0.9,1.4-2,2.3-2.2c2.4-0.4,4.3,1.1,4.4,3.6C1247.5,693.6,1246.5,694.8,1245.3,695z M1251.4,681
		c-1.5-0.1-3-0.4-4.5-0.6c0-0.5,0-0.9,0-1.4c1.5-0.2,3-0.6,4.5-0.6c0.3,0,0.8,1,0.9,1.7C1252.3,680.3,1251.7,681,1251.4,681z
		 M1255.7,729.2c-0.3-0.5-1-1.1-0.9-1.6c0.1-0.5,0.9-0.9,1.5-1.5c0.5,0.7,0.9,1.2,1.4,1.7C1257,728.2,1256.3,728.7,1255.7,729.2z
		 M1258.3,620.9c-1.1-0.2-2.6-1.8-2.6-2.8c-0.1-2.7-1.5-6.2,4-7.7c0.7,2.7,1.6,5,1.8,7.3C1261.6,619.5,1260.4,621.3,1258.3,620.9z
		 M1265.5,634.6C1265.5,634.6,1265.5,634.6,1265.5,634.6C1265.5,634.5,1265.5,634.5,1265.5,634.6c-1.4,0.2-2.7,0.7-3.9,0.4
		c-0.4-0.1-0.9-2.1-0.7-3.1c0.1-0.7,1.3-1.6,2-1.7c0.7-0.1,1.7,0.8,2.1,1.5C1265.4,632.5,1265.3,633.6,1265.5,634.6
		C1265.5,634.5,1265.5,634.5,1265.5,634.6C1265.5,634.5,1265.5,634.5,1265.5,634.6c0.2,0,0.4,0.1,0.7,0.1c1.6,0.2,3,0.7,2.7,2.5
		c-0.1,0.6-1.2,1.1-1.9,1.6c-0.5-1.2-1.1-2.4-1.5-3.6C1265.4,635,1265.5,634.8,1265.5,634.6z M1267.7,644.9c-0.6,0-1.2-0.5-1.8-0.8
		c0.5-0.7,0.9-1.4,1.5-1.9c0.1-0.1,1,0.7,2.7,1.9C1269,644.5,1268.4,644.9,1267.7,644.9z M1015.4,1242.1c1-9.8-3.7-18.6-12.3-22.9
		l-1-0.5l-1.1-0.3c-2.2-0.5-4.1-0.3-5.7,0.2c-1.2-0.6-2.6-1.1-4.1-1.5c-3.7-0.9-7.3-0.6-10.6,0.9c-0.8-0.4-1.6-0.7-2.4-1.1
		c-0.9-0.4-1.7-0.8-2.6-1.2c-0.9-0.4-1.9-0.7-2.8-1c-3.3-0.8-6.1-0.5-8.2-0.2c-0.6,0.1-1.2,0.1-1.7,0.2c-1.3,0.1-2.9-0.1-4.6-0.2
		c-3.6-0.3-8.2-0.8-13,0.6c-5.5,1.6-11.9,3.8-17.1,8.6l-2.6,2.4l-0.5,3.5c0,0.2-0.2,0.6-0.3,1.1l0,0c-4.4,5.3-3.9,10.3-2.6,14.9
		c0.3,0.9,0.5,1.8,0.7,2.8c0.1,0.5,0.1,0.9,0.2,1.4c0.4,2.3,0.7,4.7,0.7,6.5c0,2.1-0.4,4.5-0.8,7.1c-0.8,5.1-1.7,10.8-0.4,17.1
		c0.2,0.9,0.5,1.8,0.8,2.5c-0.6,3-0.9,7.8,2.9,12.1c0.3,0.4,0.7,0.7,1,1l0,0.4c0.2,0.2,0.5,0.4,0.8,0.6c-0.3,0.2-0.6,0.4-0.8,0.7
		l0,1.3l2.5,2.9c3.5,4.1,7.2,7.9,13,9.4c1.8,0.5,3.7,0.6,5.8,0.6c0.5,0.3,1.1,0.5,1.8,0.7c0.2,0.1,0.5,0.1,0.7,0.2
		c6,1.5,12.7,0,17.1-3.8c1.2-1.1,2.1-2.3,2.6-3.5c1.1-1,2-2.2,2.9-3.9c2.7-3.1,5.2-6.3,7.6-9.4c2.4-3.1,4.7-6.1,7.2-8.9
		c1.9-2.2,4.4-4.2,7.1-6.4c3.1-2.6,6.3-5.2,9.2-8.5c1.9-2.1,2.7-4.4,3.1-6.2c2.7-2.1,3.7-4.7,4-6.8c0.2-1,0.7-2.5,1.2-4
		C1014,1248.5,1015.1,1245.6,1015.4,1242.1z M931.1,1236.3c-0.1,0.9-1.4,1.6-2.7,2.9c-0.8-1.7-1.7-2.6-1.6-3.6
		c0-1.6,1.2-2.9,2.9-2.2C930.5,1233.8,931.2,1235.4,931.1,1236.3z M944.3,1297.2c-0.9-1-1.8-1.7-1.7-1.9c0.4-0.8,1.1-1.4,1.7-2
		c0.1-0.1,1,0.6,1,0.8C945.2,1295.1,944.8,1295.9,944.3,1297.2z M944.5,1226.4c-0.6,0-1.1-0.6-1.7-1c0.4-0.5,0.7-1.4,1.2-1.5
		c0.5-0.1,1.2,0.6,2.2,1.1C945.4,1225.6,944.9,1226.4,944.5,1226.4z M969.1,1286.3c-0.2,0.1-1.3-1.1-1.2-1.3c0.4-0.7,1-1.4,1.7-1.8
		c0.1-0.1,0.9,0.8,1.7,1.5C970.5,1285.4,969.8,1286.1,969.1,1286.3z M988.2,1282.7c-1.1-1.8-2.1-2.7-2.2-3.7c-0.1-2,1.1-3.3,3.2-3
		c0.7,0.1,1.8,1.4,1.6,1.8C990.4,1279.3,989.4,1280.6,988.2,1282.7z"/>
</g>
</svg>
